<?xml version="1.0" encoding="utf-8"?>
<!-- Generator: Adobe Illustrator 15.1.0, SVG Export Plug-In . SVG Version: 6.00 Build 0)  -->
<!DOCTYPE svg PUBLIC "-//W3C//DTD SVG 1.1//EN" "http://www.w3.org/Graphics/SVG/1.1/DTD/svg11.dtd">
<svg version="1.1" id="Layer_1" xmlns="http://www.w3.org/2000/svg" xmlns:xlink="http://www.w3.org/1999/xlink" x="0px" y="0px"
	 width="56.69px" height="56.69px" viewBox="0 0 56.69 56.69" enable-background="new 0 0 56.69 56.69" xml:space="preserve">
<path d="M13.664,21.161L22.125,5.11c0.847-1.605,2.705-2.289,4.15-1.527s1.931,2.682,1.084,4.287L18.898,23.92
	c-0.847,1.605-2.705,2.289-4.15,1.527C13.303,24.686,12.817,22.766,13.664,21.161z M37.793,23.92
	c0.848,1.605,2.705,2.289,4.15,1.527s1.932-2.682,1.084-4.287L34.566,5.11c-0.848-1.605-2.705-2.289-4.15-1.527
	c-1.446,0.762-1.931,2.682-1.084,4.287L37.793,23.92z M53.346,24.399c0,1.652-1.1,3.031-2.602,3.49l-2.982,23.53
	c0,1.104-0.895,2-2,2H10.928c-1.104,0-2-0.896-2-2l-2.982-23.53c-1.502-0.459-2.601-1.838-2.601-3.49
	c0-2.025,1.642-3.666,3.667-3.666H10.6c-0.963,2.846,0.143,5.994,2.748,7.369c0.816,0.43,1.738,0.657,2.668,0.657
	c2.295,0,4.416-1.317,5.535-3.439l2.419-4.587h8.75l2.418,4.586c1.119,2.123,3.242,3.44,5.537,3.44c0.928,0,1.852-0.228,2.666-0.657
	c2.607-1.375,3.713-4.523,2.75-7.369h3.588C51.703,20.733,53.346,22.374,53.346,24.399z M17.012,33.17
	c0-1.174-0.951-2.125-2.125-2.125s-2.125,0.951-2.125,2.125v14.833c0,1.174,0.951,2.125,2.125,2.125s2.125-0.951,2.125-2.125V33.17z
	 M25.984,33.17c0-1.174-0.951-2.125-2.125-2.125s-2.125,0.951-2.125,2.125v14.833c0,1.174,0.951,2.125,2.125,2.125
	s2.125-0.951,2.125-2.125V33.17z M34.957,33.17c0-1.174-0.951-2.125-2.125-2.125s-2.125,0.951-2.125,2.125v14.833
	c0,1.174,0.951,2.125,2.125,2.125s2.125-0.951,2.125-2.125V33.17z M43.93,33.17c0-1.174-0.951-2.125-2.125-2.125
	s-2.125,0.951-2.125,2.125v14.833c0,1.174,0.951,2.125,2.125,2.125s2.125-0.951,2.125-2.125V33.17z"/>
</svg>
