<?xml version="1.0" encoding="utf-8"?>
<!-- Generator: Adobe Illustrator 15.1.0, SVG Export Plug-In . SVG Version: 6.00 Build 0)  -->
<!DOCTYPE svg PUBLIC "-//W3C//DTD SVG 1.1//EN" "http://www.w3.org/Graphics/SVG/1.1/DTD/svg11.dtd">
<svg version="1.1" id="Layer_1" xmlns="http://www.w3.org/2000/svg" xmlns:xlink="http://www.w3.org/1999/xlink" x="0px" y="0px"
	 width="56.69px" height="56.69px" viewBox="0 0 56.69 56.69" enable-background="new 0 0 56.69 56.69" xml:space="preserve">
<path d="M49.078,18.176h-37c-0.072,0-0.136,0.025-0.204,0.041l-1.505-4.998c-0.018-0.055-0.054-0.096-0.078-0.145
	c-0.043-0.514-0.461-0.92-0.984-0.92c-0.002,0-0.003,0-0.004,0l-4.896,0.021c-0.552,0.002-0.998,0.453-0.995,1.004
	s0.45,0.996,1,0.996c0.001,0,0.003,0,0.005,0l4.146-0.018l9.11,30.238c-1.264,0.854-2.095,2.299-2.095,3.939
	c0,2.623,2.126,4.75,4.75,4.75c2.623,0,4.75-2.127,4.75-4.75c0-0.283-0.037-0.559-0.084-0.828h13.234
	c-0.047,0.27-0.084,0.545-0.084,0.828c0,2.623,2.127,4.75,4.75,4.75s4.75-2.127,4.75-4.75s-2.127-4.75-4.75-4.75
	c-1.559,0-2.93,0.762-3.797,1.922H24.124c-0.865-1.16-2.236-1.922-3.795-1.922c-0.27,0-0.531,0.037-0.787,0.08l-1.053-3.492
	l25.193-0.02c0.441,0,0.803-0.291,0.936-0.688c0.035-0.064,0.072-0.125,0.092-0.197l5.332-19.666
	c0.035-0.125,0.039-0.25,0.025-0.371c0-0.02,0.012-0.037,0.012-0.057C50.078,18.624,49.631,18.176,49.078,18.176z M44.426,48.336
	c0,0.846-0.686,1.531-1.531,1.531s-1.531-0.686-1.531-1.531s0.686-1.531,1.531-1.531S44.426,47.49,44.426,48.336z M21.807,48.348
	c0,0.846-0.686,1.531-1.531,1.531s-1.531-0.686-1.531-1.531s0.686-1.531,1.531-1.531S21.807,47.502,21.807,48.348z M17.913,25.795
	c0-1.242,1.007-2.25,2.25-2.25s2.25,1.008,2.25,2.25c0,1.244-1.008,2.25-2.25,2.25S17.913,27.04,17.913,25.795z M23.725,34.545
	c-1.242,0-2.25-1.006-2.25-2.25c0-1.242,1.008-2.25,2.25-2.25s2.25,1.008,2.25,2.25C25.975,33.539,24.967,34.545,23.725,34.545z
	 M25.143,25.795c0-1.242,1.008-2.25,2.25-2.25s2.25,1.008,2.25,2.25c0,1.244-1.007,2.25-2.25,2.25S25.143,27.04,25.143,25.795z
	 M31.068,34.545c-1.242,0-2.25-1.006-2.25-2.25c0-1.242,1.007-2.25,2.25-2.25s2.25,1.008,2.25,2.25
	C33.318,33.539,32.311,34.545,31.068,34.545z M32.371,25.795c0-1.242,1.008-2.25,2.25-2.25s2.25,1.008,2.25,2.25
	c0,1.244-1.008,2.25-2.25,2.25S32.371,27.04,32.371,25.795z M38.412,34.545c-1.242,0-2.25-1.006-2.25-2.25
	c0-1.242,1.008-2.25,2.25-2.25s2.25,1.008,2.25,2.25C40.662,33.539,39.654,34.545,38.412,34.545z M41.85,28.045
	c-1.242,0-2.25-1.006-2.25-2.25c0-1.242,1.008-2.25,2.25-2.25s2.25,1.008,2.25,2.25C44.1,27.04,43.092,28.045,41.85,28.045z"/>
</svg>
