<?xml version="1.0" encoding="utf-8"?>
<!-- Generator: Adobe Illustrator 15.1.0, SVG Export Plug-In . SVG Version: 6.00 Build 0)  -->
<!DOCTYPE svg PUBLIC "-//W3C//DTD SVG 1.1//EN" "http://www.w3.org/Graphics/SVG/1.1/DTD/svg11.dtd">
<svg version="1.1" id="Layer_1" xmlns="http://www.w3.org/2000/svg" xmlns:xlink="http://www.w3.org/1999/xlink" x="0px" y="0px"
	 width="56.69px" height="56.69px" viewBox="0 0 56.69 56.69" enable-background="new 0 0 56.69 56.69" xml:space="preserve">
<path d="M31.59,23.157c-0.018,0.033-0.047,0.053-0.066,0.082l-0.852,1.615c-0.723,1.369-2.417,1.893-3.785,1.172
	c-1.371-0.723-1.895-2.418-1.172-3.787l0.898-1.705l1.385-2.625l7.302-13.85c0.258-0.488,0.861-0.676,1.35-0.418l3.207,1.691
	c0.49,0.258,0.676,0.861,0.418,1.35L31.59,23.157z M53.262,23.081v3.834c0,1.105-0.895,2-2,2h-2.104v22.25c0,1.105-0.896,2-2,2
	H9.493c-1.105,0-2-0.895-2-2v-22.25H5.428c-1.104,0-2-0.895-2-2v-3.834c0-1.104,0.896-2,2-2h17.535
	c-0.621,1.314-0.746,2.785-0.313,4.184c0.459,1.48,1.467,2.693,2.839,3.416c0.829,0.438,1.764,0.67,2.701,0.67
	c2.159,0,4.127-1.188,5.135-3.096l0.73-1.387c0.068-0.1,0.129-0.201,0.186-0.307l1.834-3.48h15.186
	C52.367,21.081,53.262,21.978,53.262,23.081z M18.329,43.47c0-0.477-0.387-0.863-0.863-0.863h-3.811
	c-0.477,0-0.863,0.387-0.863,0.863v3.811c0,0.479,0.387,0.863,0.863,0.863h3.811c0.477,0,0.863-0.385,0.863-0.863V43.47z
	 M18.329,34.841c0-0.479-0.387-0.863-0.863-0.863h-3.811c-0.477,0-0.863,0.385-0.863,0.863v3.811c0,0.477,0.387,0.863,0.863,0.863
	h3.811c0.477,0,0.863-0.387,0.863-0.863V34.841z M26.838,43.47c0-0.477-0.387-0.863-0.863-0.863h-3.811
	c-0.477,0-0.863,0.387-0.863,0.863v3.811c0,0.479,0.387,0.863,0.863,0.863h3.811c0.477,0,0.863-0.385,0.863-0.863V43.47z
	 M26.838,34.841c0-0.479-0.387-0.863-0.863-0.863h-3.811c-0.477,0-0.863,0.385-0.863,0.863v3.811c0,0.477,0.387,0.863,0.863,0.863
	h3.811c0.477,0,0.863-0.387,0.863-0.863V34.841z M29.811,38.651c0,0.477,0.387,0.863,0.863,0.863h3.811
	c0.477,0,0.863-0.387,0.863-0.863v-3.811c0-0.479-0.387-0.863-0.863-0.863h-3.811c-0.477,0-0.863,0.385-0.863,0.863V38.651z
	 M35.35,43.47c0-0.477-0.389-0.863-0.863-0.863h-3.811c-0.479,0-0.863,0.387-0.863,0.863v3.811c0,0.479,0.385,0.863,0.863,0.863
	h3.811c0.475,0,0.863-0.385,0.863-0.863V43.47z M43.857,43.47c0-0.477-0.385-0.863-0.863-0.863h-3.811
	c-0.477,0-0.863,0.387-0.863,0.863v3.811c0,0.479,0.387,0.863,0.863,0.863h3.811c0.479,0,0.863-0.385,0.863-0.863V43.47z
	 M43.857,34.841c0-0.479-0.385-0.863-0.863-0.863h-3.811c-0.477,0-0.863,0.385-0.863,0.863v3.811c0,0.477,0.387,0.863,0.863,0.863
	h3.811c0.479,0,0.863-0.387,0.863-0.863V34.841z"/>
</svg>
