<?xml version="1.0" encoding="utf-8"?>
<!-- Generator: Adobe Illustrator 15.1.0, SVG Export Plug-In . SVG Version: 6.00 Build 0)  -->
<!DOCTYPE svg PUBLIC "-//W3C//DTD SVG 1.1//EN" "http://www.w3.org/Graphics/SVG/1.1/DTD/svg11.dtd">
<svg version="1.1" id="Layer_1" xmlns="http://www.w3.org/2000/svg" xmlns:xlink="http://www.w3.org/1999/xlink" x="0px" y="0px"
	 width="56.69px" height="56.69px" viewBox="0 0 56.69 56.69" enable-background="new 0 0 56.69 56.69" xml:space="preserve">
<path d="M42.896,43.586c-1.56,0-2.931,0.762-3.797,1.922H24.124c-0.866-1.16-2.237-1.922-3.796-1.922c-0.27,0-0.53,0.037-0.787,0.08
	l-1.052-3.492l25.193-0.02c0.44,0,0.803-0.291,0.936-0.688c0.034-0.064,0.071-0.125,0.091-0.197l2.203-8.123
	c-1.922,0.879-4.042,1.389-6.278,1.439c-0.144,1.104-1.078,1.959-2.221,1.959c-1.242,0-2.25-1.006-2.25-2.25
	c0-0.084,0.016-0.162,0.024-0.242c-1.301-0.346-2.54-0.84-3.689-1.482c0.498,0.412,0.821,1.027,0.821,1.725
	c0,1.244-1.008,2.25-2.25,2.25s-2.25-1.006-2.25-2.25c0-1.242,1.008-2.25,2.25-2.25c0.296,0,0.576,0.061,0.835,0.164
	c-1.176-0.727-2.251-1.598-3.199-2.594c-0.37,0.268-0.821,0.43-1.313,0.43c-1.242,0-2.25-1.008-2.25-2.25
	c0-0.756,0.376-1.422,0.949-1.83c-0.919-1.766-1.526-3.719-1.729-5.789H12.078c-0.072,0-0.136,0.025-0.204,0.041l-1.505-4.998
	c-0.018-0.055-0.054-0.096-0.078-0.145c-0.043-0.514-0.461-0.92-0.984-0.92c-0.002,0-0.003,0-0.004,0l-4.896,0.021
	c-0.552,0.002-0.998,0.453-0.995,1.004s0.45,0.996,1,0.996c0.001,0,0.003,0,0.005,0l4.146-0.018l9.11,30.239
	c-1.264,0.854-2.095,2.299-2.095,3.939c0,2.623,2.126,4.75,4.75,4.75c2.623,0,4.75-2.127,4.75-4.75c0-0.283-0.036-0.559-0.083-0.828
	h13.234c-0.048,0.27-0.084,0.545-0.084,0.828c0,2.623,2.126,4.75,4.75,4.75c2.623,0,4.75-2.127,4.75-4.75
	S45.519,43.586,42.896,43.586z M25.976,32.295c0,1.244-1.008,2.25-2.25,2.25s-2.25-1.006-2.25-2.25c0-1.242,1.008-2.25,2.25-2.25
	S25.976,31.053,25.976,32.295z M20.163,23.544c1.242,0,2.25,1.008,2.25,2.25s-1.008,2.25-2.25,2.25s-2.25-1.008-2.25-2.25
	S18.921,23.544,20.163,23.544z M20.275,49.879c-0.846,0-1.531-0.686-1.531-1.531s0.686-1.531,1.531-1.531s1.531,0.686,1.531,1.531
	S21.121,49.879,20.275,49.879z M42.896,49.867c-0.846,0-1.531-0.686-1.531-1.531s0.686-1.531,1.531-1.531s1.531,0.686,1.531,1.531
	S43.741,49.867,42.896,49.867z M40.28,3.605c-7.177,0-12.997,5.82-12.997,12.998c0,7.18,5.82,13,12.997,13
	c7.179,0,12.999-5.821,12.999-13C53.279,9.425,47.459,3.605,40.28,3.605z M47.633,18.089H32.931v-2.973h14.702V18.089z"/>
</svg>
