<?xml version="1.0" encoding="utf-8"?>
<!-- Generator: Adobe Illustrator 15.1.0, SVG Export Plug-In . SVG Version: 6.00 Build 0)  -->
<!DOCTYPE svg PUBLIC "-//W3C//DTD SVG 1.1//EN" "http://www.w3.org/Graphics/SVG/1.1/DTD/svg11.dtd">
<svg version="1.1" id="Layer_1" xmlns="http://www.w3.org/2000/svg" xmlns:xlink="http://www.w3.org/1999/xlink" x="0px" y="0px"
	 width="56.69px" height="56.69px" viewBox="0 0 56.69 56.69" enable-background="new 0 0 56.69 56.69" xml:space="preserve">
<path d="M49.396,27.458c0.121-0.715,0.197-1.445,0.197-2.195c0-7.273-5.895-13.168-13.166-13.168c-4.863,0-9.1,2.645-11.38,6.564
	c-1.322-0.881-2.91-1.398-4.619-1.398c-4.602,0-8.333,3.732-8.333,8.334c0,0.014,0.002,0.027,0.002,0.041
	c-4.856,0.422-8.669,4.493-8.669,9.459c0,5.248,4.254,9.5,9.5,9.5h30.833c5.248,0,9.5-4.252,9.5-9.5
	C53.262,31.961,51.738,29.189,49.396,27.458z M39.92,34.109l-3.574,4.635l-3.574-4.635l-3.576-4.635h4.709v-6.631
	c0-0.494,0.4-0.895,0.895-0.895h3.092c0.494,0,0.895,0.4,0.895,0.895v6.631h4.709L39.92,34.109z"/>
</svg>
