<?xml version="1.0" encoding="utf-8"?>
<!-- Generator: Adobe Illustrator 15.1.0, SVG Export Plug-In . SVG Version: 6.00 Build 0)  -->
<!DOCTYPE svg PUBLIC "-//W3C//DTD SVG 1.1//EN" "http://www.w3.org/Graphics/SVG/1.1/DTD/svg11.dtd">
<svg version="1.1" id="Layer_1" xmlns="http://www.w3.org/2000/svg" xmlns:xlink="http://www.w3.org/1999/xlink" x="0px" y="0px"
	 width="56.69px" height="56.69px" viewBox="0 0 56.69 56.69" enable-background="new 0 0 56.69 56.69" xml:space="preserve">
<path d="M39.941,35.865l-3.48,4.51c-0.666,0.865-1.756,2.279-2.424,3.143l-3.479,4.514c-0.666,0.863-1.756,0.863-2.423,0
	l-3.479-4.514c-0.667-0.863-1.758-2.277-2.424-3.141l-3.483-4.514c-0.666-0.863-0.319-1.57,0.772-1.57h5.794V21.34
	c0-0.816,0.661-1.478,1.477-1.478h5.106c0.816,0,1.479,0.661,1.479,1.478v12.953h5.791C40.26,34.293,40.607,35,39.941,35.865z
	 M49.396,23.375c0.121-0.716,0.197-1.446,0.197-2.196c0-7.271-5.895-13.167-13.166-13.167c-4.863,0-9.1,2.644-11.38,6.565
	c-1.322-0.883-2.91-1.398-4.619-1.398c-4.602,0-8.333,3.73-8.333,8.333c0,0.014,0.002,0.027,0.002,0.041
	c-4.856,0.422-8.669,4.493-8.669,9.459c0,5.246,4.254,9.5,9.5,9.5h5.618l-2.171-2.814c-1.028-1.332-1.249-2.926-0.592-4.266
	c0.658-1.338,2.056-2.139,3.738-2.139h2.794V21.34c0-2.469,2.008-4.478,4.477-4.478h5.106c2.469,0,4.479,2.009,4.479,4.478v9.953
	h2.791c1.684,0,3.08,0.799,3.738,2.139s0.438,2.934-0.59,4.266l-2.17,2.814h3.615c5.248,0,9.5-4.254,9.5-9.5
	C53.262,27.876,51.738,25.105,49.396,23.375z"/>
</svg>
