<?xml version="1.0" encoding="utf-8"?>
<!-- Generator: Adobe Illustrator 15.1.0, SVG Export Plug-In . SVG Version: 6.00 Build 0)  -->
<!DOCTYPE svg PUBLIC "-//W3C//DTD SVG 1.1//EN" "http://www.w3.org/Graphics/SVG/1.1/DTD/svg11.dtd">
<svg version="1.1" id="Layer_1" xmlns="http://www.w3.org/2000/svg" xmlns:xlink="http://www.w3.org/1999/xlink" x="0px" y="0px"
	 width="56.69px" height="56.69px" viewBox="0 0 56.69 56.69" enable-background="new 0 0 56.69 56.69" xml:space="preserve">
<path d="M50.191,16.146h-2.346v-1.459H41.93v1.459h-5.207v-4.81c0-1.601-1.299-2.899-2.9-2.899H22.869c-1.603,0-2.9,1.299-2.9,2.899
	v4.81h-5.206v-1.543H8.846v1.543H6.499c-1.096,0-1.986,0.889-1.986,1.986v28.137c0,1.096,0.891,1.985,1.986,1.985h43.693
	c1.098,0,1.986-0.89,1.986-1.985V18.132C52.178,17.034,51.289,16.146,50.191,16.146z M23.968,12.437h8.754v3.709h-8.754V12.437z
	 M28.345,43.7c-6.352,0-11.5-5.149-11.5-11.5c0-6.352,5.148-11.5,11.5-11.5c6.352,0,11.5,5.148,11.5,11.5
	C39.846,38.551,34.697,43.7,28.345,43.7z M29.824,30.721h5.834v2.956h-5.834v5.836h-2.957v-5.836h-5.834v-2.956h5.834v-5.834h2.957
	V30.721z"/>
</svg>
