<?xml version="1.0" encoding="utf-8"?>
<!-- Generator: Adobe Illustrator 15.1.0, SVG Export Plug-In . SVG Version: 6.00 Build 0)  -->
<!DOCTYPE svg PUBLIC "-//W3C//DTD SVG 1.1//EN" "http://www.w3.org/Graphics/SVG/1.1/DTD/svg11.dtd">
<svg version="1.1" id="Layer_1" xmlns="http://www.w3.org/2000/svg" xmlns:xlink="http://www.w3.org/1999/xlink" x="0px" y="0px"
	 width="56.69px" height="56.69px" viewBox="0 0 56.69 56.69" enable-background="new 0 0 56.69 56.69" xml:space="preserve">
<path d="M36.805,29.271v2.215H17.048l11.296,6.908l12.574-7.689l8.332-5.095V7.546c0-2.209-1.791-4-4-4H11.707c-2.209,0-4,1.791-4,4
	v18.228l5.721,3.498H36.805z M13.055,9.939h19.583v2.214H13.055V9.939z M13.055,17.939h30.75v2.214h-30.75V17.939z M13.055,23.605
	h30.75v2.215h-30.75V23.605z M34.789,37.971l18.34,11.076c-0.426,2.33-2.457,4.098-4.908,4.098H8.47
	c-2.452,0-4.482-1.768-4.909-4.096L21.9,37.971l4.878,2.982l1.565,0.957l1.566-0.957L34.789,37.971z M19.018,36.207L3.47,45.598
	V26.699l10.736,6.565L19.018,36.207z M53.221,26.699v18.899l-15.549-9.391l4.811-2.943L53.221,26.699z"/>
</svg>
