<?xml version="1.0" encoding="utf-8"?>
<!-- Generator: Adobe Illustrator 15.1.0, SVG Export Plug-In . SVG Version: 6.00 Build 0)  -->
<!DOCTYPE svg PUBLIC "-//W3C//DTD SVG 1.1//EN" "http://www.w3.org/Graphics/SVG/1.1/DTD/svg11.dtd">
<svg version="1.1" id="Layer_1" xmlns="http://www.w3.org/2000/svg" xmlns:xlink="http://www.w3.org/1999/xlink" x="0px" y="0px"
	 width="56.69px" height="56.69px" viewBox="0 0 56.69 56.69" enable-background="new 0 0 56.69 56.69" xml:space="preserve">
<path d="M10.579,14.996c-0.033,0.016-0.268,0.131-0.438,0.215c0.006-0.018,0.014-0.035,0.031-0.049l8.244-8.176
	c0.018-0.016,0.033-0.023,0.049-0.027l-0.145,0.273c-0.305,0.607-0.479,1.33-0.479,2.16v0.014c0,1.01,0.053,4.648,0.053,4.65
	c0,0.24-0.197,0.438-0.439,0.438h-4.244H13.21C12.167,14.494,11.296,14.672,10.579,14.996z M47.157,32.977
	c-0.59,6.41-1.568,10.227-1.973,11.479c-2.043,6.336-3.785,6.498-8.73,6.498c-6.311,0-8.24-0.938-8.24-5.984
	c0-5.557,2.615-5.676,7.059-5.553c0.639,0.016-0.035,0.637-0.035,1.715c0,1.082,0.416,1.51-0.158,1.51
	c-1.285,0-3.02-0.186-3.02,1.568c0,2.17,1.041,2.098,3.771,2.098c3.369,0,4.014-0.42,4.014-3.488c0-5.043-1.426-5.816-3.391-6.041
	c-2.176-0.256-4.314-0.582-5.346-0.947c-2.613-0.928-2.426-4.387-2.426-5.363c0-0.148-0.207-0.141-0.207,0
	c0,1.383-0.098,3.297-0.811,5.451c-0.221,0.623-0.383,1.045-0.387,1.051c-0.818,1.717-2.193,1.129-4.385,0.848
	c-2.195-0.279-6.879-1.256-8.928-2.135c-0.92-0.426-1.232-0.832-1.701-1.801c-1.209-2.49-2.48-10.684-2.637-11.855
	c-0.189-1.516-0.197-2.299-0.197-2.299c-0.002-0.959,0.096-1.898,0.664-2.66c0.283-0.383,0.658-0.707,1.188-0.947
	s1.221-0.393,2.125-0.393h4.244c0.926,0,1.672-0.75,1.674-1.67c0-0.008-0.016-0.934-0.027-1.967
	c-0.012-1.031-0.025-2.193-0.025-2.686c0.002-0.871,0.223-1.494,0.563-1.982c0.508-0.727,1.422-1.199,2.248-1.43
	c1.037-0.291,5.082-0.545,7.699,0.508c0.982,0.395,1.861,1.539,2.043,2.791c1.523-0.047,4.045-0.066,6.189,0.186
	c2.666,0.314,4.789,0.705,5.834,1.084c0.971,0.35,2.043,1.24,2.381,3.043C46.806,16.691,47.532,28.924,47.157,32.977z
	 M40.655,27.785c-0.006-1.291-0.289-3.195-2.305-3.266c-1.822-0.064-2.336,1.465-2.49,2.711c0.547-0.09,1.135-0.127,1.746-0.105
	C38.753,27.164,39.806,27.406,40.655,27.785z"/>
</svg>
