<?xml version="1.0" encoding="utf-8"?>
<!-- Generator: Adobe Illustrator 15.1.0, SVG Export Plug-In . SVG Version: 6.00 Build 0)  -->
<!DOCTYPE svg PUBLIC "-//W3C//DTD SVG 1.1//EN" "http://www.w3.org/Graphics/SVG/1.1/DTD/svg11.dtd">
<svg version="1.1" id="Layer_1" xmlns="http://www.w3.org/2000/svg" xmlns:xlink="http://www.w3.org/1999/xlink" x="0px" y="0px"
	 width="56.69px" height="56.69px" viewBox="0 0 56.69 56.69" enable-background="new 0 0 56.69 56.69" xml:space="preserve">
<path d="M35.701,28.01c-0.508-0.227-1.137-0.371-1.822-0.395c-0.365-0.014-0.715,0.01-1.043,0.063
	c0.092-0.742,0.398-1.658,1.488-1.619C35.529,26.1,35.697,27.239,35.701,28.01z M53.346,9.346v37.998c0,3.314-2.688,6-6,6h-38
	c-3.314,0-6-2.686-6-6V9.346c0-3.314,2.686-6,6-6h38C50.658,3.346,53.346,6.032,53.346,9.346z M17.466,20.497
	c0.102-0.051,0.242-0.119,0.262-0.129c0.429-0.193,0.949-0.299,1.572-0.299h0.001h2.536c0.145,0,0.263-0.119,0.263-0.262
	c0-0.002-0.032-2.176-0.032-2.781V17.02c0-0.496,0.105-0.928,0.286-1.293l0.086-0.162c-0.009,0.002-0.018,0.006-0.028,0.016
	l-4.927,4.887C17.475,20.475,17.47,20.485,17.466,20.497z M39.033,19.536c-0.203-1.076-0.844-1.609-1.424-1.818
	c-0.625-0.227-1.893-0.461-3.486-0.646c-1.281-0.152-2.787-0.141-3.697-0.111c-0.109-0.75-0.635-1.434-1.223-1.67
	c-1.564-0.627-3.981-0.477-4.6-0.303c-0.494,0.139-1.04,0.42-1.345,0.855c-0.202,0.291-0.334,0.664-0.335,1.184
	c0,0.295,0.008,0.988,0.015,1.605c0.008,0.617,0.017,1.172,0.017,1.176c-0.002,0.549-0.447,0.996-1,0.998h-2.537
	c-0.54,0-0.953,0.09-1.27,0.234c-0.316,0.143-0.541,0.336-0.71,0.566c-0.339,0.453-0.397,1.016-0.396,1.588
	c0,0,0.005,0.469,0.118,1.375c0.094,0.699,0.854,5.597,1.575,7.083c0.28,0.58,0.467,0.822,1.017,1.076
	c1.225,0.525,4.023,1.109,5.336,1.277c1.309,0.166,2.131,0.518,2.62-0.508c0.002-0.004,0.099-0.256,0.23-0.627
	c0.426-1.289,0.484-2.432,0.484-3.258c0-0.086,0.124-0.09,0.124,0c0,0.582-0.111,2.65,1.45,3.203
	c0.615,0.221,1.895,0.414,3.195,0.568c1.174,0.135,2.025,0.596,2.025,3.609c0,1.834-0.385,2.086-2.398,2.086
	c-1.631,0-2.254,0.041-2.254-1.254c0-1.049,1.037-0.939,1.805-0.939c0.344,0,0.094-0.254,0.094-0.9c0-0.645,0.402-1.016,0.021-1.025
	c-2.654-0.074-4.217-0.002-4.217,3.318c0,3.016,1.153,3.576,4.924,3.576c2.955,0,3.996-0.098,5.217-3.883
	c0.242-0.748,0.826-3.029,1.18-6.859C39.811,28.692,39.377,21.381,39.033,19.536z"/>
</svg>
