<?xml version="1.0" encoding="utf-8"?>
<!-- Generator: Adobe Illustrator 15.1.0, SVG Export Plug-In . SVG Version: 6.00 Build 0)  -->
<!DOCTYPE svg PUBLIC "-//W3C//DTD SVG 1.1//EN" "http://www.w3.org/Graphics/SVG/1.1/DTD/svg11.dtd">
<svg version="1.1" id="Layer_1" xmlns="http://www.w3.org/2000/svg" xmlns:xlink="http://www.w3.org/1999/xlink" x="0px" y="0px"
	 width="56.69px" height="56.69px" viewBox="0 0 56.69 56.69" enable-background="new 0 0 56.69 56.69" xml:space="preserve">
<path d="M49.487,22.915H26.025c-2.051,0-3.713,1.662-3.713,3.713v15.83c0,2.051,1.662,3.713,3.713,3.713h13.751l8.628,5.961
	l-0.043-5.961h1.126c2.051,0,3.713-1.662,3.713-3.713v-15.83C53.2,24.577,51.538,22.915,49.487,22.915z M43.954,35.674H39.01v4.945
	h-2.507v-4.945h-4.944v-2.508h4.944v-4.943h2.507v4.943h4.944V35.674z M26.025,19.915c-3.702,0-6.713,3.012-6.713,6.713v8.068
	l-9.769,6.748l0.055-7.525H8.177c-2.588,0-4.687-2.1-4.687-4.688V9.247c0-2.588,2.099-4.688,4.687-4.688h29.62
	c2.589,0,4.688,2.1,4.688,4.688v10.668H26.025z"/>
</svg>
