<?xml version="1.0" encoding="utf-8"?>
<!-- Generator: Adobe Illustrator 15.1.0, SVG Export Plug-In . SVG Version: 6.00 Build 0)  -->
<!DOCTYPE svg PUBLIC "-//W3C//DTD SVG 1.1//EN" "http://www.w3.org/Graphics/SVG/1.1/DTD/svg11.dtd">
<svg version="1.1" id="Layer_1" xmlns="http://www.w3.org/2000/svg" xmlns:xlink="http://www.w3.org/1999/xlink" x="0px" y="0px"
	 width="56.69px" height="56.69px" viewBox="0 0 56.69 56.69" enable-background="new 0 0 56.69 56.69" xml:space="preserve">
<path d="M15.384,9.958c-0.941-2.118,0.012-4.599,2.129-5.54c1.735-0.771,3.7-0.256,4.877,1.115c1.067-0.992,2.732-1.646,4.617-1.679
	c2.554-0.044,4.744,1.067,5.601,2.66c1-2.003,3.401-2.886,5.462-1.959c2.114,0.949,3.058,3.432,2.109,5.547l-0.971,2.161
	l-1.62,0.841L17.24,13.819c-0.044,0.001-0.087,0.015-0.131,0.018L15.384,9.958z M47.646,12.959
	c-0.383-0.736-1.289-1.023-2.022-0.641l-7.254,3.761l-21.025,0.738c-0.827,0.028-1.476,0.724-1.446,1.552
	c0.028,0.811,0.693,1.447,1.498,1.447c0.018,0,0.035,0,0.054-0.001l21.088-0.74l6.878,2.329c0.16,0.054,0.322,0.08,0.481,0.08
	c0.625,0,1.209-0.395,1.421-1.02c0.266-0.785-0.155-1.637-0.939-1.902l-3.8-1.287l4.425-2.295
	C47.74,14.6,48.027,13.694,47.646,12.959z M45.421,36.101c0.617,1.262,0.965,2.607,0.965,4.01c0,7.028-8.397,12.727-18.754,12.727
	c-10.358,0-18.756-5.698-18.756-12.727c0-1.402,0.348-2.748,0.965-4.01H9.832l5.982-13.538c0.456,0.154,0.938,0.254,1.446,0.254
	l0.133-0.002l21.545-0.756l6.491,14.042H45.421z M26.533,34.109c0.369-0.422,0.817-0.76,1.345-1.015s1.099-0.382,1.713-0.382
	c0.551,0,1.079,0.106,1.587,0.32c0.506,0.214,0.944,0.52,1.313,0.918l1.336-2.197c-0.586-0.51-1.243-0.897-1.974-1.164
	c-0.729-0.267-1.483-0.4-2.263-0.4c-0.667,0-1.306,0.098-1.916,0.291s-1.173,0.463-1.692,0.809
	c-0.518,0.346-0.979,0.758-1.384,1.238s-0.732,1.008-0.984,1.582h-1.775l-0.492,2.215h1.731v0.396c0,0.082,0,0.16,0,0.232
	c0,0.074,0.006,0.148,0.018,0.225h-1.925l-0.483,2.205h2.971c0.252,0.568,0.58,1.09,0.984,1.561
	c0.404,0.473,0.862,0.877,1.375,1.217s1.071,0.605,1.675,0.795c0.604,0.191,1.236,0.287,1.898,0.287
	c0.779,0,1.534-0.135,2.263-0.404c0.73-0.27,1.388-0.656,1.974-1.16l-1.336-2.197c-0.369,0.398-0.808,0.705-1.313,0.918
	c-0.508,0.215-1.036,0.32-1.587,0.32c-0.597,0-1.153-0.117-1.665-0.352c-0.514-0.234-0.954-0.563-1.323-0.984h1.441l0.492-2.205
	h-2.936c-0.012-0.076-0.018-0.15-0.018-0.225c0-0.072,0-0.15,0-0.232c0-0.064,0-0.131,0-0.199c0-0.066,0.006-0.133,0.018-0.197
	h3.111l0.483-2.215H26.533z"/>
</svg>
