<?xml version="1.0" encoding="utf-8"?>
<!-- Generator: Adobe Illustrator 15.1.0, SVG Export Plug-In . SVG Version: 6.00 Build 0)  -->
<!DOCTYPE svg PUBLIC "-//W3C//DTD SVG 1.1//EN" "http://www.w3.org/Graphics/SVG/1.1/DTD/svg11.dtd">
<svg version="1.1" id="Layer_1" xmlns="http://www.w3.org/2000/svg" xmlns:xlink="http://www.w3.org/1999/xlink" x="0px" y="0px"
	 width="56.69px" height="56.69px" viewBox="0 0 56.69 56.69" enable-background="new 0 0 56.69 56.69" xml:space="preserve">
<path d="M15.384,9.958c-0.941-2.118,0.012-4.599,2.129-5.54c1.735-0.771,3.7-0.256,4.877,1.115c1.067-0.992,2.732-1.646,4.617-1.679
	c2.554-0.044,4.744,1.067,5.601,2.66c1-2.003,3.401-2.886,5.462-1.959c2.114,0.949,3.058,3.432,2.109,5.547l-0.971,2.161
	l-1.62,0.841L17.24,13.819c-0.044,0.001-0.087,0.015-0.131,0.018L15.384,9.958z M47.646,12.959
	c-0.383-0.736-1.289-1.023-2.022-0.641l-7.254,3.761l-21.025,0.738c-0.827,0.028-1.476,0.724-1.446,1.552
	c0.028,0.811,0.693,1.447,1.498,1.447c0.018,0,0.035,0,0.054-0.001l21.088-0.74l6.878,2.329c0.16,0.054,0.322,0.08,0.481,0.08
	c0.625,0,1.209-0.395,1.421-1.02c0.266-0.785-0.155-1.637-0.939-1.902l-3.8-1.287l4.425-2.295
	C47.74,14.6,48.027,13.694,47.646,12.959z M45.421,36.101c0.617,1.262,0.965,2.607,0.965,4.01c0,7.028-8.397,12.727-18.754,12.727
	c-10.358,0-18.756-5.698-18.756-12.727c0-1.402,0.348-2.748,0.965-4.01H9.832l5.982-13.538c0.456,0.154,0.938,0.254,1.446,0.254
	l0.133-0.002l21.545-0.756l6.491,14.042H45.421z M32.236,38.172c0-0.438-0.084-0.84-0.252-1.207s-0.396-0.684-0.686-0.949
	s-0.627-0.473-1.014-0.621s-0.799-0.223-1.236-0.223h-2.671c-0.18,0-0.332-0.063-0.457-0.188s-0.188-0.277-0.188-0.457
	c0-0.172,0.063-0.318,0.188-0.439s0.277-0.182,0.457-0.182h5.191V31.34h-2.742v-3.176H26.67v3.176h-0.293
	c-0.445,0-0.861,0.084-1.248,0.252s-0.723,0.396-1.008,0.686s-0.512,0.627-0.68,1.014s-0.252,0.799-0.252,1.236
	c0,0.445,0.084,0.863,0.252,1.254s0.395,0.732,0.68,1.025s0.621,0.523,1.008,0.691s0.803,0.252,1.248,0.252h2.671
	c0.164,0,0.309,0.025,0.434,0.076s0.188,0.166,0.188,0.346s-0.063,0.334-0.188,0.463s-0.27,0.193-0.434,0.193H23.19v2.543h3.48
	v3.598h2.156v-3.598h0.222c0.438,0,0.85-0.084,1.236-0.252s0.725-0.395,1.014-0.68s0.518-0.623,0.686-1.014
	S32.236,38.617,32.236,38.172z"/>
</svg>
