<?xml version="1.0" encoding="utf-8"?>
<!-- Generator: Adobe Illustrator 15.1.0, SVG Export Plug-In . SVG Version: 6.00 Build 0)  -->
<!DOCTYPE svg PUBLIC "-//W3C//DTD SVG 1.1//EN" "http://www.w3.org/Graphics/SVG/1.1/DTD/svg11.dtd">
<svg version="1.1" id="Layer_1" xmlns="http://www.w3.org/2000/svg" xmlns:xlink="http://www.w3.org/1999/xlink" x="0px" y="0px"
	 width="56.69px" height="56.69px" viewBox="0 0 56.69 56.69" enable-background="new 0 0 56.69 56.69" xml:space="preserve">
<path d="M15.383,9.958c-0.941-2.117,0.012-4.598,2.129-5.539c1.736-0.771,3.701-0.256,4.877,1.115
	c1.068-0.992,2.732-1.646,4.617-1.68c2.555-0.043,4.745,1.068,5.602,2.66c1-2.002,3.402-2.885,5.463-1.959
	c2.113,0.949,3.057,3.432,2.109,5.547l-0.971,2.162l-1.621,0.84l-20.35,0.715c-0.045,0.002-0.086,0.016-0.131,0.018L15.383,9.958z
	 M47.647,12.96c-0.383-0.736-1.289-1.023-2.023-0.641l-7.254,3.76l-21.026,0.738c-0.828,0.029-1.475,0.725-1.445,1.553
	c0.027,0.811,0.693,1.447,1.498,1.447c0.018,0,0.035,0,0.053-0.002l21.09-0.74l6.877,2.33c0.16,0.053,0.322,0.08,0.482,0.08
	c0.625,0,1.209-0.395,1.42-1.02c0.266-0.785-0.154-1.637-0.939-1.902l-3.799-1.287l4.424-2.295
	C47.741,14.601,48.028,13.694,47.647,12.96z M45.421,36.101c0.617,1.262,0.965,2.607,0.965,4.01c0,7.029-8.396,12.727-18.754,12.727
	c-10.359,0-18.756-5.697-18.756-12.727c0-1.402,0.348-2.748,0.965-4.01H9.831l5.982-13.537c0.457,0.154,0.938,0.254,1.447,0.254
	l0.133-0.002l21.545-0.756l6.492,14.041H45.421z M33.765,38.528h-2.523c0,0.176-0.031,0.34-0.096,0.492s-0.154,0.285-0.27,0.4
	c-0.113,0.113-0.246,0.203-0.398,0.268s-0.316,0.098-0.492,0.098h-3.077v-2.285h1.766V35.11h-1.766v-1.627
	c0-0.176,0.031-0.34,0.096-0.492s0.154-0.285,0.268-0.4c0.115-0.113,0.248-0.203,0.4-0.268s0.316-0.096,0.492-0.096h1.065v-2.523
	h-1.065c-0.521,0-1.01,0.1-1.467,0.299s-0.857,0.471-1.201,0.813c-0.342,0.344-0.613,0.744-0.813,1.201s-0.299,0.945-0.299,1.467
	v1.627h-1.459v2.391h1.459v4.807h5.6c0.521,0,1.012-0.1,1.471-0.299c0.461-0.199,0.861-0.471,1.205-0.813
	c0.342-0.344,0.611-0.742,0.809-1.199C33.665,39.54,33.765,39.05,33.765,38.528z"/>
</svg>
