<?xml version="1.0" encoding="utf-8"?>
<!-- Generator: Adobe Illustrator 15.1.0, SVG Export Plug-In . SVG Version: 6.00 Build 0)  -->
<!DOCTYPE svg PUBLIC "-//W3C//DTD SVG 1.1//EN" "http://www.w3.org/Graphics/SVG/1.1/DTD/svg11.dtd">
<svg version="1.1" id="Layer_1" xmlns="http://www.w3.org/2000/svg" xmlns:xlink="http://www.w3.org/1999/xlink" x="0px" y="0px"
	 width="56.69px" height="56.69px" viewBox="0 0 56.69 56.69" enable-background="new 0 0 56.69 56.69" xml:space="preserve">
<path d="M15.383,9.958c-0.941-2.117,0.012-4.598,2.129-5.539c1.736-0.771,3.701-0.256,4.877,1.115
	c1.068-0.992,2.732-1.646,4.617-1.68c2.557-0.043,4.746,1.068,5.604,2.66c1-2.002,3.4-2.885,5.461-1.959
	c2.115,0.949,3.059,3.432,2.109,5.547l-0.971,2.162l-1.619,0.84l-20.352,0.715c-0.043,0.002-0.086,0.016-0.131,0.018L15.383,9.958z
	 M47.646,12.96c-0.383-0.736-1.289-1.023-2.021-0.641l-7.254,3.76l-21.027,0.738c-0.826,0.029-1.475,0.725-1.445,1.553
	c0.027,0.811,0.693,1.447,1.498,1.447c0.018,0,0.035,0,0.053-0.002l21.09-0.74l6.879,2.33c0.16,0.053,0.322,0.08,0.48,0.08
	c0.625,0,1.209-0.395,1.422-1.02c0.266-0.785-0.156-1.637-0.939-1.902l-3.801-1.287l4.426-2.295
	C47.74,14.601,48.027,13.694,47.646,12.96z M45.422,36.101c0.617,1.262,0.965,2.607,0.965,4.01c0,7.029-8.398,12.727-18.756,12.727
	c-10.359,0-18.755-5.697-18.755-12.727c0-1.402,0.348-2.748,0.965-4.01h-0.01l5.982-13.537c0.457,0.154,0.938,0.254,1.447,0.254
	l0.133-0.002l21.547-0.756l6.49,14.041H45.422z M32.385,30.683h-2.521v3.779c0,0.346-0.066,0.672-0.197,0.98
	c-0.133,0.307-0.313,0.574-0.541,0.803s-0.496,0.41-0.801,0.541c-0.305,0.133-0.629,0.197-0.975,0.197s-0.672-0.064-0.98-0.197
	c-0.307-0.131-0.576-0.313-0.805-0.541s-0.408-0.496-0.539-0.803c-0.133-0.309-0.199-0.635-0.199-0.98v-3.779h-2.521v3.779
	c0,0.422,0.053,0.838,0.158,1.248s0.264,0.797,0.475,1.16s0.475,0.693,0.791,0.992s0.682,0.549,1.098,0.748h-2.074v2.391h3.332
	v2.285h2.521v-2.285h3.332V38.61h-2.092c0.404-0.164,0.762-0.393,1.076-0.686c0.313-0.293,0.578-0.625,0.795-0.998
	c0.217-0.371,0.383-0.77,0.498-1.195c0.113-0.424,0.17-0.848,0.17-1.27V30.683z"/>
</svg>
