<?xml version="1.0" encoding="utf-8"?>
<!-- Generator: Adobe Illustrator 15.1.0, SVG Export Plug-In . SVG Version: 6.00 Build 0)  -->
<!DOCTYPE svg PUBLIC "-//W3C//DTD SVG 1.1//EN" "http://www.w3.org/Graphics/SVG/1.1/DTD/svg11.dtd">
<svg version="1.1" id="Layer_1" xmlns="http://www.w3.org/2000/svg" xmlns:xlink="http://www.w3.org/1999/xlink" x="0px" y="0px"
	 width="56.69px" height="56.69px" viewBox="0 0 56.69 56.69" enable-background="new 0 0 56.69 56.69" xml:space="preserve">
<path d="M34.764,22.394h-5.119v5.119h-2.596v-5.119h-5.119v-2.596h5.119v-5.119h2.596v5.119h5.119V22.394z M46.305,22.115
	c0,10.907-8.979,22.063-15.529,29.903c-0.023,0.031-1.074,1.254-2.374,1.254c-0.006,0-0.111,0-0.115,0
	c-1.299,0-2.348-1.223-2.373-1.254c-6.547-7.84-15.527-18.996-15.527-29.903c0-10.414,8.053-18.695,17.957-18.695
	C38.25,3.419,46.305,11.701,46.305,22.115z M39.664,21.095c0-6.25-5.066-11.318-11.317-11.318c-6.254,0-11.32,5.068-11.32,11.318
	c0,6.252,5.066,11.321,11.32,11.321C34.598,32.416,39.664,27.347,39.664,21.095z"/>
</svg>
