<?xml version="1.0" encoding="utf-8"?>
<!-- Generator: Adobe Illustrator 15.1.0, SVG Export Plug-In . SVG Version: 6.00 Build 0)  -->
<!DOCTYPE svg PUBLIC "-//W3C//DTD SVG 1.1//EN" "http://www.w3.org/Graphics/SVG/1.1/DTD/svg11.dtd">
<svg version="1.1" id="Layer_1" xmlns="http://www.w3.org/2000/svg" xmlns:xlink="http://www.w3.org/1999/xlink" x="0px" y="0px"
	 width="56.69px" height="56.69px" viewBox="0 0 56.69 56.69" enable-background="new 0 0 56.69 56.69" xml:space="preserve">
<path d="M34.763,22.393H21.929v-2.594h12.834V22.393z M46.305,22.115c0,10.906-8.979,22.062-15.529,29.902
	c-0.023,0.03-1.075,1.254-2.373,1.254c-0.006,0-0.112,0-0.115,0c-1.3,0-2.349-1.224-2.374-1.254
	c-6.547-7.841-15.527-18.997-15.527-29.902c0-10.414,8.054-18.696,17.958-18.696C38.249,3.419,46.305,11.701,46.305,22.115z
	 M39.664,21.096c0-6.25-5.067-11.318-11.317-11.318c-6.253,0-11.32,5.068-11.32,11.318c0,6.252,5.067,11.319,11.32,11.319
	C34.597,32.415,39.664,27.348,39.664,21.096z"/>
</svg>
