<?xml version="1.0" encoding="utf-8"?>
<!-- Generator: Adobe Illustrator 15.1.0, SVG Export Plug-In . SVG Version: 6.00 Build 0)  -->
<!DOCTYPE svg PUBLIC "-//W3C//DTD SVG 1.1//EN" "http://www.w3.org/Graphics/SVG/1.1/DTD/svg11.dtd">
<svg version="1.1" id="Layer_1" xmlns="http://www.w3.org/2000/svg" xmlns:xlink="http://www.w3.org/1999/xlink" x="0px" y="0px"
	 width="56.69px" height="56.69px" viewBox="0 0 56.69 56.69" enable-background="new 0 0 56.69 56.69" xml:space="preserve">
<path d="M44.033,49.971c0,1.828-1.484,3.313-3.313,3.313h-24.75c-1.831,0-3.313-1.484-3.313-3.313c0-1.83,1.482-3.313,3.313-3.313
	h9.813v-7.432c-4.66-1.088-8.207-5.063-8.637-9.943h6.887c0.967,0,1.75-0.784,1.75-1.75s-0.783-1.75-1.75-1.75h-6.938v-2.438h6.938
	c0.967,0,1.75-0.783,1.75-1.75s-0.783-1.75-1.75-1.75h-6.938v-2.438h6.938c0.967,0,1.75-0.783,1.75-1.75s-0.783-1.75-1.75-1.75h-6.9
	c0.389-5.862,5.252-10.5,11.213-10.5c5.959,0,10.824,4.638,11.211,10.5h-6.898c-0.967,0-1.75,0.783-1.75,1.75s0.783,1.75,1.75,1.75
	h6.938v2.438h-6.938c-0.967,0-1.75,0.783-1.75,1.75s0.783,1.75,1.75,1.75h6.938v2.438h-6.938c-0.967,0-1.75,0.783-1.75,1.75
	s0.783,1.75,1.75,1.75h6.887c-0.432,4.881-3.979,8.855-8.637,9.943v7.432h9.813C42.549,46.658,44.033,48.141,44.033,49.971z"/>
</svg>
