<?xml version="1.0" encoding="utf-8"?>
<!-- Generator: Adobe Illustrator 15.1.0, SVG Export Plug-In . SVG Version: 6.00 Build 0)  -->
<!DOCTYPE svg PUBLIC "-//W3C//DTD SVG 1.1//EN" "http://www.w3.org/Graphics/SVG/1.1/DTD/svg11.dtd">
<svg version="1.1" id="Layer_1" xmlns="http://www.w3.org/2000/svg" xmlns:xlink="http://www.w3.org/1999/xlink" x="0px" y="0px"
	 width="56.69px" height="56.69px" viewBox="0 0 56.69 56.69" enable-background="new 0 0 56.69 56.69" xml:space="preserve">
<path d="M26.313,53.291H5.097c-0.661,0-1.197-0.537-1.197-1.197v-2.297c0-0.658,0.536-1.195,1.197-1.195H22.02
	C23.178,50.396,24.631,51.98,26.313,53.291z M5.097,41.068c-0.661,0-1.197,0.537-1.197,1.195v2.297c0,0.66,0.536,1.197,1.197,1.197
	h15.398c-0.626-1.475-1.049-3.053-1.282-4.689H5.097z M5.097,33.535c-0.661,0-1.197,0.537-1.197,1.195v2.297
	c0,0.66,0.536,1.197,1.197,1.197H19.01c0.014-1.623,0.248-3.189,0.648-4.689H5.097z M5.097,26.001c-0.661,0-1.197,0.537-1.197,1.195
	v2.297c0,0.66,0.536,1.197,1.197,1.197H20.66c0.77-1.715,1.787-3.292,3.008-4.69H5.097z M33.729,19.664
	c0-0.658-0.535-1.195-1.195-1.195H5.097c-0.661,0-1.197,0.537-1.197,1.195v2.297c0,0.66,0.536,1.197,1.197,1.197H26.77
	c2.049-1.502,4.402-2.602,6.959-3.18V19.664z M5.097,15.623h27.437c0.66,0,1.195-0.535,1.195-1.197V12.13
	c0-0.66-0.535-1.197-1.195-1.197H5.097c-0.661,0-1.197,0.537-1.197,1.197v2.295C3.899,15.087,4.436,15.623,5.097,15.623z
	 M5.097,8.089h27.437c0.66,0,1.195-0.535,1.195-1.197V4.597c0-0.66-0.535-1.197-1.195-1.197H5.097c-0.661,0-1.197,0.537-1.197,1.197
	v2.295C3.899,7.554,4.436,8.089,5.097,8.089z M52.791,38.395c0,8.227-6.67,14.896-14.896,14.896c-8.224,0-14.895-6.67-14.895-14.896
	c0-8.225,6.671-14.895,14.895-14.895C46.121,23.5,52.791,30.17,52.791,38.395z M43.315,40.918h-2.523
	c0,0.176-0.031,0.34-0.096,0.492s-0.154,0.285-0.27,0.4c-0.113,0.113-0.246,0.203-0.398,0.268s-0.316,0.098-0.492,0.098H36.46
	v-2.285h1.766V37.5H36.46v-1.627c0-0.176,0.031-0.34,0.096-0.492s0.154-0.285,0.268-0.4c0.115-0.113,0.248-0.203,0.4-0.268
	s0.316-0.096,0.492-0.096h1.064v-2.523h-1.064c-0.521,0-1.01,0.1-1.467,0.299s-0.857,0.471-1.201,0.813
	c-0.342,0.344-0.613,0.744-0.813,1.201s-0.299,0.945-0.299,1.467V37.5h-1.459v2.391h1.459v4.807h5.6c0.521,0,1.012-0.1,1.471-0.299
	c0.461-0.199,0.861-0.471,1.205-0.813c0.342-0.344,0.611-0.742,0.809-1.199C43.216,41.93,43.315,41.439,43.315,40.918z"/>
</svg>
