<?xml version="1.0" encoding="utf-8"?>
<!-- Generator: Adobe Illustrator 15.1.0, SVG Export Plug-In . SVG Version: 6.00 Build 0)  -->
<!DOCTYPE svg PUBLIC "-//W3C//DTD SVG 1.1//EN" "http://www.w3.org/Graphics/SVG/1.1/DTD/svg11.dtd">
<svg version="1.1" id="Layer_1" xmlns="http://www.w3.org/2000/svg" xmlns:xlink="http://www.w3.org/1999/xlink" x="0px" y="0px"
	 width="56.69px" height="56.69px" viewBox="0 0 56.69 56.69" enable-background="new 0 0 56.69 56.69" xml:space="preserve">
<path d="M26.313,53.291H5.097c-0.661,0-1.197-0.537-1.197-1.197v-2.297c0-0.658,0.536-1.195,1.197-1.195H22.02
	C23.178,50.396,24.631,51.98,26.313,53.291z M5.097,41.068c-0.661,0-1.197,0.537-1.197,1.195v2.297c0,0.66,0.536,1.197,1.197,1.197
	h15.399c-0.627-1.475-1.049-3.053-1.283-4.689H5.097z M5.097,33.535c-0.661,0-1.197,0.537-1.197,1.195v2.297
	c0,0.66,0.536,1.197,1.197,1.197H19.01c0.014-1.623,0.248-3.189,0.648-4.689H5.097z M5.097,26c-0.661,0-1.197,0.537-1.197,1.197
	v2.297c0,0.66,0.536,1.197,1.197,1.197H20.66c0.77-1.715,1.787-3.292,3.008-4.692H5.097z M33.729,19.664
	c0-0.66-0.535-1.197-1.195-1.197H5.097c-0.661,0-1.197,0.537-1.197,1.197v2.295c0,0.662,0.536,1.197,1.197,1.197H26.77
	c2.049-1.5,4.402-2.6,6.959-3.178V19.664z M5.097,15.623h27.437c0.66,0,1.195-0.535,1.195-1.197V12.13
	c0-0.66-0.535-1.197-1.195-1.197H5.097c-0.661,0-1.197,0.537-1.197,1.197v2.295C3.899,15.087,4.436,15.623,5.097,15.623z
	 M5.097,8.089h27.437c0.66,0,1.195-0.535,1.195-1.197V4.597c0-0.66-0.535-1.197-1.195-1.197H5.097c-0.661,0-1.197,0.537-1.197,1.197
	v2.295C3.899,7.554,4.436,8.089,5.097,8.089z M52.791,38.395c0,8.227-6.67,14.896-14.895,14.896s-14.895-6.67-14.895-14.896
	c0-8.225,6.67-14.895,14.895-14.895S52.791,30.17,52.791,38.395z M42.938,32.094h-2.523v3.779c0,0.346-0.066,0.672-0.197,0.98
	c-0.133,0.307-0.313,0.576-0.541,0.805s-0.494,0.408-0.799,0.539c-0.305,0.133-0.631,0.199-0.977,0.199s-0.672-0.066-0.98-0.199
	c-0.307-0.131-0.574-0.311-0.803-0.539s-0.41-0.498-0.541-0.805c-0.133-0.309-0.197-0.635-0.197-0.98v-3.779h-2.523v3.779
	c0,0.422,0.053,0.838,0.158,1.248s0.264,0.797,0.475,1.16s0.475,0.695,0.791,0.994s0.684,0.547,1.1,0.746h-2.074v2.391h3.33v2.285
	h2.523v-2.285h3.33v-2.391h-2.092c0.404-0.164,0.764-0.393,1.076-0.686c0.314-0.293,0.58-0.625,0.797-0.998
	c0.217-0.371,0.381-0.77,0.496-1.195c0.113-0.424,0.172-0.848,0.172-1.27V32.094z"/>
</svg>
