<?xml version="1.0" encoding="utf-8"?>
<!-- Generator: Adobe Illustrator 15.1.0, SVG Export Plug-In . SVG Version: 6.00 Build 0)  -->
<!DOCTYPE svg PUBLIC "-//W3C//DTD SVG 1.1//EN" "http://www.w3.org/Graphics/SVG/1.1/DTD/svg11.dtd">
<svg version="1.1" id="Layer_1" xmlns="http://www.w3.org/2000/svg" xmlns:xlink="http://www.w3.org/1999/xlink" x="0px" y="0px"
	 width="56.69px" height="56.69px" viewBox="0 0 56.69 56.69" enable-background="new 0 0 56.69 56.69" xml:space="preserve">
<path d="M26.313,53.291H5.097c-0.661,0-1.197-0.537-1.197-1.197v-2.297c0-0.658,0.536-1.195,1.197-1.195H22.02
	C23.178,50.396,24.631,51.98,26.313,53.291z M5.097,45.758h15.398c-0.625-1.475-1.049-3.053-1.281-4.689H5.097
	c-0.661,0-1.197,0.537-1.197,1.195v2.297C3.899,45.221,4.436,45.758,5.097,45.758z M5.097,38.225H19.01
	c0.014-1.623,0.248-3.189,0.648-4.689H5.097c-0.661,0-1.197,0.537-1.197,1.195v2.297C3.899,37.688,4.436,38.225,5.097,38.225z
	 M5.097,30.691h15.564c0.77-1.715,1.787-3.292,3.008-4.69H5.097c-0.661,0-1.197,0.537-1.197,1.195v2.297
	C3.899,30.154,4.436,30.691,5.097,30.691z M5.097,23.158H26.77c2.049-1.502,4.402-2.602,6.958-3.18v-0.314
	c0-0.658-0.535-1.195-1.195-1.195H5.097c-0.661,0-1.197,0.537-1.197,1.195v2.297C3.899,22.621,4.436,23.158,5.097,23.158z
	 M5.097,15.623h27.437c0.66,0,1.195-0.535,1.195-1.197V12.13c0-0.66-0.535-1.197-1.195-1.197H5.097
	c-0.661,0-1.197,0.537-1.197,1.197v2.295C3.899,15.087,4.436,15.623,5.097,15.623z M5.097,8.089h27.437
	c0.66,0,1.195-0.535,1.195-1.197V4.597c0-0.66-0.535-1.197-1.195-1.197H5.097c-0.661,0-1.197,0.537-1.197,1.197v2.295
	C3.899,7.554,4.436,8.089,5.097,8.089z M52.791,38.395c0,8.227-6.67,14.896-14.896,14.896C29.672,53.291,23,46.621,23,38.395
	C23,30.17,29.672,23.5,37.895,23.5C46.121,23.5,52.791,30.17,52.791,38.395z M36.17,35.789c0.369-0.422,0.818-0.76,1.346-1.014
	c0.527-0.256,1.098-0.383,1.713-0.383c0.551,0,1.08,0.107,1.588,0.32c0.506,0.215,0.943,0.52,1.313,0.918l1.336-2.197
	c-0.586-0.51-1.242-0.896-1.973-1.164c-0.729-0.266-1.484-0.4-2.264-0.4c-0.668,0-1.307,0.098-1.916,0.291s-1.172,0.463-1.691,0.809
	c-0.518,0.346-0.98,0.758-1.385,1.238s-0.732,1.008-0.984,1.582h-1.775l-0.492,2.215h1.732V38.4c0,0.082,0,0.16,0,0.232
	c0,0.074,0.006,0.148,0.018,0.225h-1.926l-0.482,2.205h2.971c0.252,0.568,0.58,1.09,0.984,1.561
	c0.404,0.473,0.861,0.877,1.375,1.217c0.512,0.34,1.07,0.605,1.674,0.795c0.604,0.191,1.236,0.287,1.898,0.287
	c0.779,0,1.535-0.135,2.264-0.404c0.73-0.27,1.387-0.656,1.973-1.16l-1.336-2.197c-0.369,0.398-0.807,0.705-1.313,0.918
	c-0.508,0.215-1.037,0.32-1.588,0.32c-0.598,0-1.152-0.117-1.664-0.352c-0.514-0.234-0.955-0.563-1.324-0.984h1.441l0.492-2.205
	h-2.936c-0.012-0.076-0.018-0.15-0.018-0.225c0-0.072,0-0.15,0-0.232c0-0.064,0-0.131,0-0.199c0-0.066,0.006-0.133,0.018-0.197
	h3.111l0.484-2.215H36.17z"/>
</svg>
