<?xml version="1.0" encoding="utf-8"?>
<!-- Generator: Adobe Illustrator 15.1.0, SVG Export Plug-In . SVG Version: 6.00 Build 0)  -->
<!DOCTYPE svg PUBLIC "-//W3C//DTD SVG 1.1//EN" "http://www.w3.org/Graphics/SVG/1.1/DTD/svg11.dtd">
<svg version="1.1" id="Layer_1" xmlns="http://www.w3.org/2000/svg" xmlns:xlink="http://www.w3.org/1999/xlink" x="0px" y="0px"
	 width="56.69px" height="56.69px" viewBox="0 0 56.69 56.69" enable-background="new 0 0 56.69 56.69" xml:space="preserve">
<path d="M26.313,53.29H5.097c-0.661,0-1.197-0.536-1.197-1.197v-2.296c0-0.659,0.536-1.196,1.197-1.196H22.02
	C23.178,50.396,24.631,51.979,26.313,53.29z M5.097,45.757h15.398c-0.626-1.475-1.049-3.052-1.282-4.689H5.097
	c-0.661,0-1.197,0.537-1.197,1.195v2.297C3.899,45.22,4.436,45.757,5.097,45.757z M5.097,38.224H19.01
	c0.014-1.622,0.248-3.188,0.648-4.689H5.097c-0.661,0-1.197,0.537-1.197,1.196v2.296C3.899,37.688,4.436,38.224,5.097,38.224z
	 M5.097,30.69H20.66c0.77-1.715,1.787-3.291,3.008-4.689H5.097c-0.661,0-1.197,0.537-1.197,1.195v2.297
	C3.899,30.153,4.436,30.69,5.097,30.69z M5.097,23.157H26.77c2.049-1.501,4.402-2.602,6.959-3.18v-0.314
	c0-0.658-0.535-1.195-1.195-1.195H5.097c-0.661,0-1.197,0.537-1.197,1.195v2.297C3.899,22.62,4.436,23.157,5.097,23.157z
	 M5.097,15.623h27.437c0.66,0,1.195-0.536,1.195-1.197V12.13c0-0.659-0.535-1.196-1.195-1.196H5.097
	c-0.661,0-1.197,0.537-1.197,1.196v2.296C3.899,15.087,4.436,15.623,5.097,15.623z M5.097,8.09h27.437
	c0.66,0,1.195-0.536,1.195-1.197V4.597c0-0.659-0.535-1.196-1.195-1.196H5.097c-0.661,0-1.197,0.537-1.197,1.196v2.296
	C3.899,7.554,4.436,8.09,5.097,8.09z M52.791,38.394c0,8.227-6.67,14.896-14.896,14.896c-8.224,0-14.895-6.67-14.895-14.896
	c0-8.225,6.671-14.895,14.895-14.895C46.121,23.499,52.791,30.169,52.791,38.394z M42.419,40.001c0-0.438-0.084-0.84-0.252-1.207
	s-0.396-0.684-0.686-0.949s-0.627-0.473-1.014-0.621s-0.799-0.223-1.236-0.223H36.56c-0.18,0-0.332-0.063-0.457-0.188
	s-0.188-0.277-0.188-0.457c0-0.172,0.063-0.318,0.188-0.439s0.277-0.182,0.457-0.182h5.191v-2.566h-2.742v-3.177h-2.156v3.177H36.56
	c-0.445,0-0.861,0.084-1.248,0.252s-0.723,0.396-1.008,0.686s-0.512,0.627-0.68,1.014s-0.252,0.799-0.252,1.236
	c0,0.445,0.084,0.863,0.252,1.254s0.395,0.732,0.68,1.025s0.621,0.523,1.008,0.691s0.803,0.252,1.248,0.252h2.672
	c0.164,0,0.309,0.025,0.434,0.076s0.188,0.166,0.188,0.346s-0.063,0.334-0.188,0.463s-0.27,0.193-0.434,0.193h-5.859V43.2h3.48
	v3.598h2.156V43.2h0.223c0.438,0,0.85-0.084,1.236-0.252s0.725-0.395,1.014-0.68s0.518-0.623,0.686-1.014
	S42.419,40.446,42.419,40.001z"/>
</svg>
