<?xml version="1.0" encoding="utf-8"?>
<!-- Generator: Adobe Illustrator 15.1.0, SVG Export Plug-In . SVG Version: 6.00 Build 0)  -->
<!DOCTYPE svg PUBLIC "-//W3C//DTD SVG 1.1//EN" "http://www.w3.org/Graphics/SVG/1.1/DTD/svg11.dtd">
<svg version="1.1" id="Layer_1" xmlns="http://www.w3.org/2000/svg" xmlns:xlink="http://www.w3.org/1999/xlink" x="0px" y="0px"
	 width="56.69px" height="56.69px" viewBox="0 0 56.69 56.69" enable-background="new 0 0 56.69 56.69" xml:space="preserve">
<path d="M49.396,27.458c0.121-0.715,0.197-1.445,0.197-2.195c0-7.271-5.895-13.168-13.166-13.168c-4.863,0-9.1,2.645-11.38,6.566
	c-1.322-0.883-2.91-1.398-4.619-1.398c-4.602,0-8.333,3.73-8.333,8.332c0,0.014,0.002,0.027,0.002,0.041
	c-4.856,0.422-8.669,4.495-8.669,9.459c0,5.248,4.254,9.5,9.5,9.5h30.833c5.248,0,9.5-4.252,9.5-9.5
	C53.262,31.961,51.738,29.189,49.396,27.458z M42.973,32.941c0.945,0.945,0.945,2.475,0,3.42c-0.943,0.943-2.475,0.943-3.418,0
	l-3.596-3.596l-3.596,3.596c-0.945,0.943-2.475,0.943-3.418,0c-0.943-0.945-0.943-2.475,0-3.418l3.596-3.598l-3.596-3.596
	c-0.944-0.943-0.944-2.475,0-3.418c0.944-0.943,2.475-0.943,3.418,0l3.596,3.596l3.596-3.596c0.945-0.943,2.475-0.943,3.42,0
	c0.943,0.943,0.943,2.475,0,3.418l-3.598,3.596L42.973,32.941z"/>
</svg>
