<?xml version="1.0" encoding="utf-8"?>
<!-- Generator: Adobe Illustrator 15.1.0, SVG Export Plug-In . SVG Version: 6.00 Build 0)  -->
<!DOCTYPE svg PUBLIC "-//W3C//DTD SVG 1.1//EN" "http://www.w3.org/Graphics/SVG/1.1/DTD/svg11.dtd">
<svg version="1.1" id="Layer_1" xmlns="http://www.w3.org/2000/svg" xmlns:xlink="http://www.w3.org/1999/xlink" x="0px" y="0px"
	 width="56.69px" height="56.69px" viewBox="0 0 56.69 56.69" enable-background="new 0 0 56.69 56.69" xml:space="preserve">
<path d="M28.387,11.948c-1.396-1.287-0.596-4.984,0.15-7.461l20.596,20.596l-2.297,1.031c0,0-4.832,2.334-6,1
	c-1.166-1.332,2.168-5.832,2.168-5.832s-4.5,0-6.168-1.723c-1.666-1.725-2.375-5.611-2.375-5.611S30.553,13.948,28.387,11.948z
	 M47.357,30.521l2.453-2.455l-1.709,0.77c-0.68,0.324-3.676,1.689-6.037,1.689c-1.842,0-2.912-0.779-3.484-1.436
	c-1.32-1.505-1.168-3.496-0.385-5.474c-1.295-0.391-2.58-1.004-3.516-1.971c-1.307-1.352-2.133-3.359-2.615-4.926
	c-1.717-0.299-4.002-0.988-5.713-2.566c-1.898-1.752-2.215-4.748-1.012-9.33l-1.842,1.84l-1.111-1.109
	c-0.586-0.586-1.535-0.586-2.121,0c-0.585,0.584-0.585,1.535,0,2.121l1.111,1.109l-2.275,2.275c-0.631,0.631-0.631,1.656,0,2.287
	l21.572,21.572c0.631,0.631,1.656,0.631,2.287,0l2.275-2.275l1.402,1.402l-6.344,6.344L27.463,27.557l-5.48,5.48l-1.24-1.242
	c-1.19-1.189-3.118-1.189-4.306,0c-0.837,0.836-1.071,2.035-0.731,3.088l-9.309,9.309c-0.781,0.781-0.781,2.049,0,2.828l4.596,4.598
	c0.781,0.781,2.048,0.781,2.828,0l9.311-9.311c1.053,0.342,2.25,0.105,3.088-0.73c1.188-1.189,1.188-3.117,0-4.307l-2.113-2.111
	l3.357-3.359l12.832,12.832l10.586-10.586L47.357,30.521z"/>
</svg>
