<?xml version="1.0" encoding="utf-8"?>
<!-- Generator: Adobe Illustrator 15.1.0, SVG Export Plug-In . SVG Version: 6.00 Build 0)  -->
<!DOCTYPE svg PUBLIC "-//W3C//DTD SVG 1.1//EN" "http://www.w3.org/Graphics/SVG/1.1/DTD/svg11.dtd">
<svg version="1.1" id="Layer_1" xmlns="http://www.w3.org/2000/svg" xmlns:xlink="http://www.w3.org/1999/xlink" x="0px" y="0px"
	 width="56.69px" height="56.69px" viewBox="0 0 56.69 56.69" enable-background="new 0 0 56.69 56.69" xml:space="preserve">
<path d="M50.266,20.445c0.287,0.288,0.287,0.755,0,1.043L39.463,32.29c-0.285,0.287-0.754,0.287-1.041,0
	c-0.287-0.289-0.287-0.755,0-1.042l8.373-8.373l0.918-0.918l1.51-1.512C49.512,20.158,49.979,20.158,50.266,20.445z M48.861,18.668
	c3.006-3.008,3.008-7.883-0.002-10.891c-3.008-3.009-7.883-3.008-10.891,0L35.75,9.996l10.893,10.891L48.861,18.668z M34.832,10.914
	L23.25,22.497l0.291,1.981L10.988,37.031c-0.863,0.862-0.863,2.26,0,3.123l0.467,0.466l-2.471,1.128l-3.41,7.245l0.752,0.75
	l3.859-3.858c-0.293-0.565-0.209-1.272,0.262-1.747c0.586-0.585,1.535-0.585,2.119,0s0.584,1.533,0,2.118
	c-0.475,0.473-1.182,0.557-1.746,0.263L6.961,50.38l0.793,0.789l7.135-3.516l0.941-2.656l0.654,0.654
	c0.861,0.861,2.262,0.861,3.125,0L32.16,33.099l1.98,0.289l11.584-11.583L34.832,10.914z"/>
</svg>
