<?xml version="1.0" encoding="utf-8"?>
<!-- Generator: Adobe Illustrator 15.1.0, SVG Export Plug-In . SVG Version: 6.00 Build 0)  -->
<!DOCTYPE svg PUBLIC "-//W3C//DTD SVG 1.1//EN" "http://www.w3.org/Graphics/SVG/1.1/DTD/svg11.dtd">
<svg version="1.1" id="Layer_1" xmlns="http://www.w3.org/2000/svg" xmlns:xlink="http://www.w3.org/1999/xlink" x="0px" y="0px"
	 width="56.69px" height="56.69px" viewBox="0 0 56.69 56.69" enable-background="new 0 0 56.69 56.69" xml:space="preserve">
<path d="M47.538,13.046c2.137-2.139,2.137-5.604,0-7.742c-2.137-2.139-5.604-2.139-7.742,0l-6.785,6.785
	c-0.063,0.063-0.106,0.137-0.165,0.203l-1.535-1.535c-1.106-1.107-2.902-1.107-4.01,0s-1.107,2.902,0,4.01l0.828,0.828
	L13.652,30.071L13.65,30.07l-1.788,6.674l-0.562,2.095l-3.487,3.488c-0.353,0.353-0.353,0.925,0,1.277l2.075,2.075
	c0.354,0.353,0.925,0.353,1.277,0.001l3.488-3.488l2.096-0.561l6.674-1.789v-0.001l14.476-14.478l0.684,0.686
	c1.109,1.105,2.904,1.105,4.01,0c1.107-1.107,1.107-2.902,0-4.01l-2.043-2.043c0.066-0.059,0.141-0.103,0.203-0.166L47.538,13.046z
	 M22.486,38.225l-6.204,1.662l-2.095,0.561l-0.468,0.126l-0.342,0.342l-2.85,2.851l-0.799-0.8l2.849-2.85l0.342-0.342l0.125-0.468
	l0.563-2.095l0.439-1.642l20.217-9.122L22.486,38.225z M11.68,51.301l0.01,0.018h-0.012c-0.013,0.925-0.764,1.672-1.693,1.672
	c-0.928,0-1.68-0.747-1.693-1.672h-0.01l0.009-0.018c0-0.001-0.001-0.003-0.001-0.005c0-0.598,1.267-3.116,1.695-3.108
	c0.43,0.007,1.695,2.511,1.695,3.108C11.68,51.298,11.68,51.3,11.68,51.301z"/>
</svg>
