<?xml version="1.0" encoding="utf-8"?>
<!-- Generator: Adobe Illustrator 15.1.0, SVG Export Plug-In . SVG Version: 6.00 Build 0)  -->
<!DOCTYPE svg PUBLIC "-//W3C//DTD SVG 1.1//EN" "http://www.w3.org/Graphics/SVG/1.1/DTD/svg11.dtd">
<svg version="1.1" id="Layer_1" xmlns="http://www.w3.org/2000/svg" xmlns:xlink="http://www.w3.org/1999/xlink" x="0px" y="0px"
	 width="56.69px" height="56.69px" viewBox="0 0 56.69 56.69" enable-background="new 0 0 56.69 56.69" xml:space="preserve">
<path d="M35.729,18.822c0,4.077-3.305,7.382-7.381,7.382c-4.078,0-7.385-3.305-7.385-7.382c0-4.078,3.307-7.383,7.385-7.383
	C32.424,11.439,35.729,14.744,35.729,18.822z M3.4,38.385h49.891v7.605c0,3.314-2.688,6-6,6H9.4c-3.313,0-6-2.686-6-6V38.385z
	 M10.089,45.188c0,0.828,0.672,1.5,1.5,1.5h33.513c0.828,0,1.5-0.672,1.5-1.5s-0.672-1.5-1.5-1.5H11.589
	C10.761,43.688,10.089,44.359,10.089,45.188z M53.291,10.7v24.685H3.4V10.7c0-3.313,2.687-6,6-6h37.891
	C50.604,4.7,53.291,7.386,53.291,10.7z M14.46,25.89c0-1.755-1.422-3.177-3.177-3.177s-3.178,1.422-3.178,3.177
	c0,1.754,1.423,3.178,3.178,3.178S14.46,27.644,14.46,25.89z M15.539,9.582c0-0.553-0.448-1-1-1H8.081c-0.552,0-1,0.447-1,1v2.711
	c0,0.552,0.448,1,1,1h6.458c0.552,0,1-0.448,1-1V9.582z M38.592,18.822c0-5.659-4.586-10.247-10.247-10.247
	c-5.658,0-10.246,4.588-10.246,10.247s4.588,10.247,10.246,10.247C34.006,29.068,38.592,24.481,38.592,18.822z M49.469,9.575
	c0-0.553-0.447-1-1-1h-6c-0.553,0-1,0.447-1,1v6c0,0.553,0.447,1,1,1h6c0.553,0,1-0.447,1-1V9.575z"/>
</svg>
