<?xml version="1.0" encoding="utf-8"?>
<!-- Generator: Adobe Illustrator 15.1.0, SVG Export Plug-In . SVG Version: 6.00 Build 0)  -->
<!DOCTYPE svg PUBLIC "-//W3C//DTD SVG 1.1//EN" "http://www.w3.org/Graphics/SVG/1.1/DTD/svg11.dtd">
<svg version="1.1" id="Layer_1" xmlns="http://www.w3.org/2000/svg" xmlns:xlink="http://www.w3.org/1999/xlink" x="0px" y="0px"
	 width="56.69px" height="56.69px" viewBox="0 0 56.69 56.69" enable-background="new 0 0 56.69 56.69" xml:space="preserve">
<path d="M53.305,9.614c0-3.313-2.688-6-6-6H9.386c-3.313,0-6,2.687-6,6v25.583c0,0.433,0.06,0.849,0.149,1.254H3.52
	c0.01,0.048,0.031,0.092,0.042,0.14c0.009,0.036,0.013,0.074,0.022,0.11h0.012c0.67,2.582,3,4.496,5.79,4.496h12.057l-9.318,9.317
	c-0.586,0.586-0.586,1.536,0,2.122c0.586,0.585,1.535,0.586,2.121,0l11.049-11.048c0.115-0.115,0.189-0.253,0.26-0.392h1.291v10.379
	c0,0.828,0.672,1.5,1.5,1.5c0.829,0,1.501-0.672,1.501-1.5V41.197h1.291c0.07,0.139,0.145,0.276,0.26,0.392l11.049,11.048
	c0.586,0.586,1.535,0.585,2.121,0c0.586-0.586,0.586-1.536,0-2.122l-9.318-9.317h12.057c2.789,0,5.12-1.914,5.789-4.496h0.012
	c0.01-0.036,0.014-0.074,0.021-0.11c0.012-0.048,0.033-0.092,0.043-0.14h-0.015c0.089-0.405,0.149-0.821,0.149-1.254V9.614z
	 M21.162,17.614l7.216,7.216l17.249-13.585l2.475,3.142l-20.04,15.784l-7.284-7.285l-9.765,7.267l-2.389-3.208L21.162,17.614z"/>
</svg>
