<?xml version="1.0" encoding="utf-8"?>
<!-- Generator: Adobe Illustrator 15.1.0, SVG Export Plug-In . SVG Version: 6.00 Build 0)  -->
<!DOCTYPE svg PUBLIC "-//W3C//DTD SVG 1.1//EN" "http://www.w3.org/Graphics/SVG/1.1/DTD/svg11.dtd">
<svg version="1.1" id="Layer_1" xmlns="http://www.w3.org/2000/svg" xmlns:xlink="http://www.w3.org/1999/xlink" x="0px" y="0px"
	 width="56.69px" height="56.69px" viewBox="0 0 56.69 56.69" enable-background="new 0 0 56.69 56.69" xml:space="preserve">
<path d="M39.828,16.625h-23.04v-1.658h23.04V16.625z M31.461,8.972H16.789v1.66h14.672V8.972z M39.828,19.212h-23.04v1.658h23.04
	V19.212z M53.096,30.508v20c0,1.656-1.344,3-3,3h-43.5c-1.656,0-3-1.344-3-3v-20c0-1.657,1.344-3,3-3h2.656v-6.625
	c0-1.496,1.099-2.726,2.531-2.953V7.179c0-2.203,1.793-3.996,3.997-3.996h25.13c2.205,0,3.998,1.793,3.998,3.996v10.75
	c1.433,0.227,2.531,1.457,2.531,2.953v6.625h2.656C51.752,27.507,53.096,28.851,53.096,30.508z M13.783,7.179v20.328h29.125V7.179
	c0-1.1-0.896-1.996-1.998-1.996H15.78C14.679,5.183,13.783,6.08,13.783,7.179z M47.555,45.674c0-0.967-0.783-1.75-1.75-1.75H10.886
	c-0.966,0-1.75,0.783-1.75,1.75s0.784,1.75,1.75,1.75h34.918C46.771,47.424,47.555,46.641,47.555,45.674z M47.555,34.633
	c0-1.203-0.975-2.178-2.178-2.178s-2.178,0.975-2.178,2.178c0,1.201,0.975,2.178,2.178,2.178S47.555,35.834,47.555,34.633z"/>
</svg>
