<?xml version="1.0" encoding="utf-8"?>
<!-- Generator: Adobe Illustrator 15.1.0, SVG Export Plug-In . SVG Version: 6.00 Build 0)  -->
<!DOCTYPE svg PUBLIC "-//W3C//DTD SVG 1.1//EN" "http://www.w3.org/Graphics/SVG/1.1/DTD/svg11.dtd">
<svg version="1.1" id="Layer_1" xmlns="http://www.w3.org/2000/svg" xmlns:xlink="http://www.w3.org/1999/xlink" x="0px" y="0px"
	 width="56.69px" height="56.69px" viewBox="0 0 56.69 56.69" enable-background="new 0 0 56.69 56.69" xml:space="preserve">
<path d="M33.194,24.325c0,5.628-4.563,10.191-10.189,10.191c-5.629,0-10.193-4.563-10.193-10.191
	c0-5.629,4.564-10.191,10.193-10.191C28.632,14.133,33.194,18.696,33.194,24.325z M53.29,22.102v14.927
	c0,3.039-2.262,5.543-5.191,5.943c0,0,0.002,0.002,0.002,0.006v2.9c0,1.455-1.18,2.633-2.635,2.633
	c-1.453,0-2.633-1.178-2.633-2.633v-2.85H15.388v2.85c0,1.455-1.179,2.633-2.633,2.633s-2.633-1.178-2.633-2.633v-2.85H9.4
	c-3.313,0-6-2.686-6-6V22.102c0-3.221,2.54-5.842,5.724-5.986c2.816-4.742,7.977-7.938,13.879-7.938
	c5.898,0,11.053,3.189,13.871,7.924H47.29C50.604,16.102,53.29,18.788,53.29,22.102z M37.149,24.325
	c0-7.813-6.334-14.146-14.146-14.146S8.856,16.512,8.856,24.325c0,7.812,6.334,14.146,14.146,14.146S37.149,32.137,37.149,24.325z
	 M49.032,22.377c0-1.201-0.975-2.178-2.176-2.178c-1.203,0-2.178,0.977-2.178,2.178c0,1.203,0.975,2.178,2.178,2.178
	C48.058,24.555,49.032,23.581,49.032,22.377z"/>
</svg>
