<?xml version="1.0" encoding="utf-8"?>
<!-- Generator: Adobe Illustrator 15.1.0, SVG Export Plug-In . SVG Version: 6.00 Build 0)  -->
<!DOCTYPE svg PUBLIC "-//W3C//DTD SVG 1.1//EN" "http://www.w3.org/Graphics/SVG/1.1/DTD/svg11.dtd">
<svg version="1.1" id="Layer_1" xmlns="http://www.w3.org/2000/svg" xmlns:xlink="http://www.w3.org/1999/xlink" x="0px" y="0px"
	 width="56.69px" height="56.69px" viewBox="0 0 56.69 56.69" enable-background="new 0 0 56.69 56.69" xml:space="preserve">
<path d="M49.379,10.346H24.168c-2.203,0-3.988,1.785-3.988,3.988v17.009c0,2.203,1.785,3.99,3.988,3.99h1.21l-0.047,6.404
	l9.27-6.404h14.778c2.199,0,3.988-1.787,3.988-3.99V14.334C53.367,12.131,51.578,10.346,49.379,10.346z M41.676,29.822H26.551
	v-2.492h15.125V29.822z M46.996,24.086H26.551v-2.492h20.445V24.086z M46.996,18.354H26.551V15.86h20.445V18.354z M27.013,44.846
	H5.628V10.924h12.446c1.197-2.131,3.479-3.578,6.094-3.578h5.104c-0.226-2.232-2.088-3.98-4.38-3.98H7.748
	c-2.444,0-4.425,1.98-4.425,4.424V48.9c0,2.443,1.98,4.424,4.425,4.424h17.145c2.443,0,4.425-1.98,4.425-4.424v-6.877l-2.305,1.592
	V44.846z M13.279,6.094h6.082c0.438,0,0.792,0.355,0.792,0.793s-0.354,0.791-0.792,0.791h-6.082c-0.438,0-0.793-0.354-0.793-0.791
	S12.842,6.094,13.279,6.094z M16.32,50.928c-0.969,0-1.752-0.783-1.752-1.75c0-0.969,0.783-1.752,1.752-1.752
	c0.967,0,1.751,0.783,1.751,1.752C18.071,50.145,17.287,50.928,16.32,50.928z"/>
</svg>
