<?xml version="1.0" encoding="utf-8"?>
<!-- Generator: Adobe Illustrator 15.1.0, SVG Export Plug-In . SVG Version: 6.00 Build 0)  -->
<!DOCTYPE svg PUBLIC "-//W3C//DTD SVG 1.1//EN" "http://www.w3.org/Graphics/SVG/1.1/DTD/svg11.dtd">
<svg version="1.1" id="Layer_1" xmlns="http://www.w3.org/2000/svg" xmlns:xlink="http://www.w3.org/1999/xlink" x="0px" y="0px"
	 width="56.69px" height="56.69px" viewBox="0 0 56.69 56.69" enable-background="new 0 0 56.69 56.69" xml:space="preserve">
<path d="M49.29,16.994h-2.261l0.026-0.083L12.526,5.8c-0.202-0.983-1.072-1.723-2.115-1.723c-1.194,0-2.162,0.968-2.162,2.161
	c0,1.194,0.968,2.162,2.162,2.162c0.617,0,1.17-0.262,1.563-0.677l28.809,9.271H7.4c-2.209,0-4,1.791-4,4v27.619
	c0,2.209,1.791,4,4,4h41.89c2.209,0,4-1.791,4-4V20.994C53.29,18.785,51.499,16.994,49.29,16.994z M10.999,47.551
	c0,0.828-0.672,1.5-1.5,1.5s-1.5-0.672-1.5-1.5v-10.75c0-0.828,0.672-1.5,1.5-1.5s1.5,0.672,1.5,1.5V47.551z M16.424,47.551
	c0,0.828-0.672,1.5-1.5,1.5s-1.5-0.672-1.5-1.5v-10.75c0-0.828,0.672-1.5,1.5-1.5s1.5,0.672,1.5,1.5V47.551z M21.849,47.551
	c0,0.828-0.672,1.5-1.5,1.5s-1.5-0.672-1.5-1.5v-10.75c0-0.828,0.672-1.5,1.5-1.5s1.5,0.672,1.5,1.5V47.551z M27.274,47.551
	c0,0.828-0.672,1.5-1.5,1.5s-1.5-0.672-1.5-1.5v-10.75c0-0.828,0.672-1.5,1.5-1.5s1.5,0.672,1.5,1.5V47.551z M32.699,47.551
	c0,0.828-0.672,1.5-1.5,1.5s-1.5-0.672-1.5-1.5v-10.75c0-0.828,0.672-1.5,1.5-1.5s1.5,0.672,1.5,1.5V47.551z M38.124,47.551
	c0,0.828-0.672,1.5-1.5,1.5s-1.5-0.672-1.5-1.5v-10.75c0-0.828,0.672-1.5,1.5-1.5s1.5,0.672,1.5,1.5V47.551z M45.312,49.051
	c-1.484,0-2.688-1.203-2.688-2.688s1.203-2.688,2.688-2.688s2.688,1.203,2.688,2.688S46.796,49.051,45.312,49.051z M45.312,41.676
	c-1.761,0-3.188-1.427-3.188-3.188s1.427-3.188,3.188-3.188s3.188,1.427,3.188,3.188S47.072,41.676,45.312,41.676z M48.499,31.988
	H17.851V26.02c0-0.466-0.378-0.844-0.844-0.844s-0.844,0.378-0.844,0.844v5.969H7.499v-9.875h41V31.988z"/>
</svg>
