<?xml version="1.0" encoding="utf-8"?>
<!-- Generator: Adobe Illustrator 15.1.0, SVG Export Plug-In . SVG Version: 6.00 Build 0)  -->
<!DOCTYPE svg PUBLIC "-//W3C//DTD SVG 1.1//EN" "http://www.w3.org/Graphics/SVG/1.1/DTD/svg11.dtd">
<svg version="1.1" id="Layer_1" xmlns="http://www.w3.org/2000/svg" xmlns:xlink="http://www.w3.org/1999/xlink" x="0px" y="0px"
	 width="56.69px" height="56.69px" viewBox="0 0 56.69 56.69" enable-background="new 0 0 56.69 56.69" xml:space="preserve">
<path d="M49.289,17.499h2.25c0.553,0,1-0.448,1-1v-5.5c0-0.553-0.447-1-1-1h-2.25c-0.029,0-0.053,0.014-0.082,0.017V7.358
	c0-2.209-1.791-4-4-4H18.248v50h26.959c2.209,0,4-1.791,4-4v-13.5c0.029,0.002,0.053,0.016,0.082,0.016h2.25c0.553,0,1-0.447,1-1
	v-5.5c0-0.552-0.447-1-1-1h-2.25c-0.029,0-0.053,0.014-0.082,0.017v-1.908c0.029,0.003,0.053,0.017,0.082,0.017h2.25
	c0.553,0,1-0.447,1-1v-5.5c0-0.553-0.447-1-1-1h-2.25c-0.029,0-0.053,0.014-0.082,0.017v-1.533
	C49.236,17.485,49.26,17.499,49.289,17.499z M32.541,18.463c2.379,0,4.307,1.928,4.307,4.307s-1.928,4.307-4.307,4.307
	s-4.308-1.928-4.308-4.307S30.162,18.463,32.541,18.463z M32.51,38.252c-2.928,0-5.583-1.139-7.568-2.986
	c0.354-3.869,3.605-6.902,7.568-6.902c3.963,0,7.213,3.033,7.568,6.902C38.092,37.113,35.436,38.252,32.51,38.252z M16.235,3.358
	h0.013v50H12.29c-0.093,0-0.18-0.021-0.271-0.027H8.151c-2.209,0-4-1.791-4-4V7.333c0-2.209,1.791-4,4-4h4.506h0.994h2.584V3.358z"
	/>
</svg>
