<?xml version="1.0" encoding="utf-8"?>
<!-- Generator: Adobe Illustrator 15.1.0, SVG Export Plug-In . SVG Version: 6.00 Build 0)  -->
<!DOCTYPE svg PUBLIC "-//W3C//DTD SVG 1.1//EN" "http://www.w3.org/Graphics/SVG/1.1/DTD/svg11.dtd">
<svg version="1.1" id="Layer_1" xmlns="http://www.w3.org/2000/svg" xmlns:xlink="http://www.w3.org/1999/xlink" x="0px" y="0px"
	 width="56.69px" height="56.69px" viewBox="0 0 56.69 56.69" enable-background="new 0 0 56.69 56.69" xml:space="preserve">
<path d="M19.593,35.471c0,2.215-1.238,4.139-3.061,5.119v3.131c0,1.518-1.231,2.75-2.75,2.75s-2.75-1.232-2.75-2.75V40.59
	c-1.821-0.98-3.06-2.904-3.06-5.119c0-2.213,1.238-4.135,3.06-5.115V12.97c0-1.52,1.231-2.75,2.75-2.75s2.75,1.23,2.75,2.75v17.383
	C18.354,31.334,19.593,33.258,19.593,35.471z M31.096,15.746V12.97c0-1.52-1.232-2.75-2.75-2.75c-1.519,0-2.75,1.23-2.75,2.75v2.775
	c-1.821,0.98-3.06,2.904-3.06,5.115c0,2.215,1.238,4.139,3.06,5.119v17.741c0,1.518,1.231,2.75,2.75,2.75
	c1.518,0,2.75-1.232,2.75-2.75V25.98c1.821-0.98,3.059-2.904,3.059-5.119C34.154,18.65,32.917,16.726,31.096,15.746z M45.657,26.353
	V12.97c0-1.52-1.231-2.75-2.75-2.75s-2.75,1.23-2.75,2.75v13.385c-1.821,0.98-3.06,2.903-3.06,5.116c0,2.215,1.238,4.139,3.06,5.119
	v7.131c0,1.518,1.231,2.75,2.75,2.75s2.75-1.232,2.75-2.75V36.59c1.822-0.98,3.061-2.904,3.061-5.119
	C48.718,29.258,47.479,27.333,45.657,26.353z"/>
</svg>
