<?xml version="1.0" encoding="utf-8"?>
<!-- Generator: Adobe Illustrator 15.1.0, SVG Export Plug-In . SVG Version: 6.00 Build 0)  -->
<!DOCTYPE svg PUBLIC "-//W3C//DTD SVG 1.1//EN" "http://www.w3.org/Graphics/SVG/1.1/DTD/svg11.dtd">
<svg version="1.1" id="Layer_1" xmlns="http://www.w3.org/2000/svg" xmlns:xlink="http://www.w3.org/1999/xlink" x="0px" y="0px"
	 width="56.69px" height="56.69px" viewBox="0 0 56.69 56.69" enable-background="new 0 0 56.69 56.69" xml:space="preserve">
<path d="M32.524,30.069l3.527,1.518c0.369,0.158,0.795-0.01,0.953-0.381l1.797-4.172c0.159-0.369-0.013-0.795-0.38-0.954
	l-3.485-1.499c0.311-1.574,0.351-3.213,0.084-4.848l3.507-1.396c0.373-0.148,0.555-0.57,0.406-0.943l-1.682-4.221
	c-0.148-0.373-0.57-0.554-0.943-0.406l-3.506,1.396c-0.905-1.33-2.023-2.464-3.287-3.379l1.512-3.516
	c0.159-0.368-0.012-0.795-0.38-0.953L26.474,4.52c-0.367-0.159-0.795,0.011-0.954,0.38l-1.504,3.498
	c-1.558-0.301-3.177-0.339-4.792-0.076l-1.444-3.627C17.63,4.322,17.21,4.14,16.837,4.288L12.614,5.97
	c-0.372,0.148-0.554,0.57-0.404,0.943l1.443,3.627c-1.369,0.932-2.53,2.086-3.46,3.393l-3.655-1.571
	c-0.367-0.159-0.794,0.012-0.953,0.38L3.79,16.915c-0.158,0.369,0.012,0.795,0.379,0.953l3.695,1.591
	c-0.277,1.517-0.308,3.089-0.053,4.66l-3.748,1.493c-0.371,0.147-0.554,0.57-0.405,0.942l1.682,4.222
	c0.149,0.373,0.569,0.553,0.942,0.404l3.748-1.492c0.92,1.354,2.061,2.502,3.35,3.428l-1.578,3.666
	c-0.158,0.367,0.012,0.795,0.38,0.953l4.175,1.797c0.368,0.158,0.795-0.012,0.953-0.381l1.584-3.684
	c1.535,0.289,3.127,0.322,4.715,0.063l1.444,3.629c0.149,0.371,0.571,0.553,0.942,0.404l4.222-1.682
	c0.373-0.148,0.556-0.57,0.406-0.943l-1.444-3.625C30.494,32.419,31.615,31.315,32.524,30.069z M23.791,28.238
	c-3.46,1.38-7.383-0.31-8.759-3.769c-1.379-3.461,0.309-7.381,3.77-8.76c3.458-1.378,7.379,0.309,8.758,3.77
	C28.938,22.938,27.249,26.86,23.791,28.238z M52.743,39.087c-0.029-0.234-0.243-0.398-0.476-0.371l-2.202,0.279
	c-0.319-0.891-0.788-1.699-1.373-2.406l1.377-1.779c0.145-0.186,0.11-0.453-0.076-0.598l-2.11-1.637
	c-0.188-0.145-0.454-0.109-0.599,0.076l-1.371,1.77c-0.842-0.4-1.758-0.66-2.715-0.748l-0.29-2.275
	c-0.03-0.234-0.243-0.4-0.477-0.371l-2.65,0.338c-0.233,0.027-0.398,0.242-0.368,0.475l0.288,2.277
	c-0.916,0.328-1.746,0.814-2.47,1.422l-1.847-1.432c-0.188-0.145-0.455-0.111-0.6,0.076l-1.636,2.111
	c-0.144,0.186-0.11,0.455,0.077,0.6l1.869,1.447c-0.383,0.824-0.631,1.713-0.716,2.645l-2.353,0.299
	c-0.233,0.029-0.399,0.244-0.37,0.475l0.337,2.65c0.028,0.234,0.242,0.398,0.476,0.371l2.353-0.299
	c0.324,0.906,0.804,1.727,1.402,2.443l-1.438,1.855c-0.145,0.184-0.109,0.453,0.076,0.596l2.112,1.637
	c0.185,0.145,0.453,0.111,0.598-0.076l1.443-1.863c0.831,0.391,1.732,0.643,2.674,0.73l0.289,2.275
	c0.029,0.234,0.243,0.4,0.477,0.371l2.65-0.338c0.233-0.029,0.399-0.242,0.369-0.477l-0.29-2.275
	c0.881-0.316,1.683-0.779,2.384-1.355l1.781,1.383c0.188,0.146,0.455,0.111,0.6-0.074l1.637-2.111c0.144-0.188,0.11-0.455-0.076-0.6
	l-1.763-1.365c0.407-0.852,0.671-1.777,0.762-2.746l2.201-0.279c0.232-0.029,0.398-0.244,0.369-0.477L52.743,39.087z M42.866,45.681
	c-2.171,0.275-4.154-1.262-4.43-3.434s1.262-4.156,3.434-4.432c2.171-0.275,4.153,1.262,4.431,3.434
	C46.576,43.419,45.038,45.403,42.866,45.681z"/>
</svg>
