<?xml version="1.0" encoding="utf-8"?>
<!-- Generator: Adobe Illustrator 15.1.0, SVG Export Plug-In . SVG Version: 6.00 Build 0)  -->
<!DOCTYPE svg PUBLIC "-//W3C//DTD SVG 1.1//EN" "http://www.w3.org/Graphics/SVG/1.1/DTD/svg11.dtd">
<svg version="1.1" id="Layer_1" xmlns="http://www.w3.org/2000/svg" xmlns:xlink="http://www.w3.org/1999/xlink" x="0px" y="0px"
	 width="56.69px" height="56.69px" viewBox="0 0 56.69 56.69" enable-background="new 0 0 56.69 56.69" xml:space="preserve">
<path d="M38.303,26.126c-1.883,0-3.613-0.613-4.979-1.632c-1.366,1.019-3.096,1.632-4.979,1.632s-3.612-0.613-4.979-1.632
	c-1.365,1.019-3.096,1.632-4.978,1.632c-1.883,0-3.612-0.613-4.978-1.632c-1.363,1.016-3.087,1.628-4.963,1.631v22.937h3.291V28.043
	h12.627v21.019h23.457V26.109c-1.713-0.087-3.283-0.675-4.543-1.614C41.914,25.513,40.186,26.126,38.303,26.126z M45.073,40.877
	H27.157V28.043h17.916V40.877z M53.237,18.702c0,2.443-2.229,4.426-4.978,4.426c-2.751,0-4.979-1.982-4.979-4.426
	c0,2.443-2.229,4.426-4.978,4.426c-2.751,0-4.979-1.982-4.979-4.426c0,2.443-2.229,4.426-4.979,4.426
	c-2.749,0-4.979-1.982-4.979-4.426c0,2.443-2.229,4.426-4.978,4.426c-2.751,0-4.978-1.982-4.979-4.426
	c0,2.443-2.229,4.426-4.979,4.426s-4.979-1.982-4.979-4.426l5-11.074h4.286h3.671h8.956h5.957h8.957h3h4.957L53.237,18.702z"/>
</svg>
