<?xml version="1.0" encoding="utf-8"?>
<!-- Generator: Adobe Illustrator 15.1.0, SVG Export Plug-In . SVG Version: 6.00 Build 0)  -->
<!DOCTYPE svg PUBLIC "-//W3C//DTD SVG 1.1//EN" "http://www.w3.org/Graphics/SVG/1.1/DTD/svg11.dtd">
<svg version="1.1" id="Layer_1" xmlns="http://www.w3.org/2000/svg" xmlns:xlink="http://www.w3.org/1999/xlink" x="0px" y="0px"
	 width="56.69px" height="56.69px" viewBox="0 0 56.69 56.69" enable-background="new 0 0 56.69 56.69" xml:space="preserve">
<path d="M7.359,19.4h3.492v17.889H7.359c-2.209,0-4-1.791-4-4V23.4C3.359,21.191,5.15,19.4,7.359,19.4z M30.727,22.248V8.89
	c0-0.818-0.664-1.482-1.483-1.482c-0.82,0-1.484,0.664-1.484,1.482v0.152c-0.258,0.084-0.523,0.197-0.802,0.373l-10.145,6.4
	c-0.822,0.518-1.883,1.188-2.961,1.867v21.321c1.078,0.682,2.139,1.35,2.961,1.869l10.145,6.402
	c0.278,0.176,0.544,0.287,0.802,0.371v0.152c0,0.818,0.664,1.484,1.484,1.484c0.819,0,1.483-0.666,1.483-1.484V34.441
	c1.787-1.432,2.935-3.629,2.935-6.096C33.661,25.876,32.514,23.679,30.727,22.248z M49.027,28.344l3.597-3.597
	c0.943-0.943,0.943-2.475,0-3.418c-0.944-0.943-2.475-0.943-3.419,0l-3.596,3.597l-3.597-3.597c-0.943-0.943-2.474-0.943-3.417,0
	c-0.945,0.943-0.945,2.475,0,3.418l3.596,3.597l-3.596,3.597c-0.943,0.943-0.943,2.473,0,3.418c0.943,0.943,2.473,0.943,3.418,0
	l3.596-3.597l3.596,3.597c0.943,0.943,2.475,0.943,3.418,0c0.944-0.945,0.944-2.475,0-3.42L49.027,28.344z"/>
</svg>
