<?xml version="1.0" encoding="utf-8"?>
<!-- Generator: Adobe Illustrator 15.1.0, SVG Export Plug-In . SVG Version: 6.00 Build 0)  -->
<!DOCTYPE svg PUBLIC "-//W3C//DTD SVG 1.1//EN" "http://www.w3.org/Graphics/SVG/1.1/DTD/svg11.dtd">
<svg version="1.1" id="Layer_1" xmlns="http://www.w3.org/2000/svg" xmlns:xlink="http://www.w3.org/1999/xlink" x="0px" y="0px"
	 width="56.69px" height="56.69px" viewBox="0 0 56.69 56.69" enable-background="new 0 0 56.69 56.69" xml:space="preserve">
<path d="M27.061,49.182c0.281,1.068-0.357,2.162-1.426,2.443l-6.469,1.697c-1.068,0.279-2.162-0.359-2.442-1.428l-4.901-18.68
	c-0.032-0.119-0.049-0.24-0.058-0.361h-1.116c-1.059,0-1.919-0.861-1.919-1.92v-0.635H7.406c-1.268,0-2.296-1.027-2.296-2.295
	v-7.818c0-1.268,1.028-2.295,2.296-2.295h1.323v-0.637c0-1.061,0.86-1.918,1.919-1.918h13.677h0.762h0.839v17.518h-0.839h-0.762
	h-1.549l0.658,2.51l0.569-0.15c0.24-0.063,0.488,0.08,0.551,0.322l1.107,4.215c0.063,0.242-0.082,0.488-0.322,0.553l-0.57,0.148
	L27.061,49.182z M48.666,18.041V4.775c0-0.814-0.66-1.473-1.474-1.473c-0.814,0-1.475,0.658-1.475,1.473v0.15
	c-0.256,0.084-0.52,0.195-0.795,0.369l-10.076,6.357c-1.61,1.016-4.143,2.613-5.92,3.734v17.414c1.777,1.121,4.31,2.721,5.92,3.734
	l10.076,6.357c0.275,0.174,0.539,0.287,0.795,0.369v0.152c0,0.813,0.66,1.473,1.475,1.473c0.813,0,1.474-0.66,1.474-1.473V30.148
	c1.774-1.422,2.914-3.604,2.914-6.053C51.58,21.645,50.44,19.463,48.666,18.041z"/>
</svg>
