<?xml version="1.0" encoding="utf-8"?>
<!-- Generator: Adobe Illustrator 15.1.0, SVG Export Plug-In . SVG Version: 6.00 Build 0)  -->
<!DOCTYPE svg PUBLIC "-//W3C//DTD SVG 1.1//EN" "http://www.w3.org/Graphics/SVG/1.1/DTD/svg11.dtd">
<svg version="1.1" id="Layer_1" xmlns="http://www.w3.org/2000/svg" xmlns:xlink="http://www.w3.org/1999/xlink" x="0px" y="0px"
	 width="56.69px" height="56.69px" viewBox="0 0 56.69 56.69" enable-background="new 0 0 56.69 56.69" xml:space="preserve">
<path d="M49.29,7.395H7.4c-2.209,0-4,1.791-4,4v30.599c0,2.209,1.791,4,4,4h0.969c-0.011,0.082-0.024,0.162-0.024,0.246v1.223
	c0,1.012,0.821,1.832,1.833,1.832c1.013,0,1.834-0.82,1.834-1.832V46.24c0-0.084-0.014-0.164-0.025-0.246h32.717
	c-0.011,0.082-0.024,0.162-0.024,0.246v1.223c0,1.012,0.82,1.832,1.833,1.832s1.833-0.82,1.833-1.832V46.24
	c0-0.084-0.014-0.164-0.024-0.246h0.97c2.209,0,4-1.791,4-4V11.395C53.29,9.186,51.499,7.395,49.29,7.395z M42.713,41.426H7.621
	V11.961h35.092V41.426z M47.625,40.129c-1.15,0-2.084-0.934-2.084-2.082c0-1.152,0.934-2.084,2.084-2.084s2.084,0.932,2.084,2.084
	C49.709,39.195,48.775,40.129,47.625,40.129z M47.625,33.797c-1.15,0-2.084-0.934-2.084-2.084s0.934-2.084,2.084-2.084
	s2.084,0.934,2.084,2.084S48.775,33.797,47.625,33.797z M49.766,22.348h-4.281c-0.553,0-1-0.447-1-1s0.447-1,1-1h4.281
	c0.553,0,1,0.447,1,1S50.318,22.348,49.766,22.348z M49.766,18.52h-4.281c-0.553,0-1-0.447-1-1s0.447-1,1-1h4.281
	c0.553,0,1,0.447,1,1S50.318,18.52,49.766,18.52z M49.766,14.692h-4.281c-0.553,0-1-0.447-1-1s0.447-1,1-1h4.281
	c0.553,0,1,0.447,1,1S50.318,14.692,49.766,14.692z"/>
</svg>
