<?xml version="1.0" encoding="utf-8"?>
<!-- Generator: Adobe Illustrator 15.1.0, SVG Export Plug-In . SVG Version: 6.00 Build 0)  -->
<!DOCTYPE svg PUBLIC "-//W3C//DTD SVG 1.1//EN" "http://www.w3.org/Graphics/SVG/1.1/DTD/svg11.dtd">
<svg version="1.1" id="Layer_1" xmlns="http://www.w3.org/2000/svg" xmlns:xlink="http://www.w3.org/1999/xlink" x="0px" y="0px"
	 width="56.69px" height="56.69px" viewBox="0 0 56.69 56.69" enable-background="new 0 0 56.69 56.69" xml:space="preserve">
<path d="M39.169,34.711h-5.793v12.953c0,0.816-0.66,1.477-1.477,1.477h-5.108c-0.814,0-1.477-0.66-1.477-1.477V34.711h-5.793
	c-1.092,0-1.439-0.707-0.772-1.57l3.482-4.513c0.667-0.863,1.758-2.277,2.424-3.142l3.479-4.513c0.666-0.864,1.756-0.864,2.424,0
	l3.479,4.513c0.667,0.864,1.757,2.278,2.424,3.143l3.48,4.51C40.608,34.004,40.261,34.711,39.169,34.711z M49.397,22.913
	c0.12-0.715,0.197-1.445,0.197-2.195c0-7.271-5.895-13.168-13.168-13.168c-4.863,0-9.101,2.645-11.381,6.566
	c-1.322-0.883-2.909-1.398-4.618-1.398c-4.602,0-8.334,3.73-8.334,8.332c0,0.014,0.002,0.027,0.002,0.041
	c-4.855,0.422-8.668,4.493-8.668,9.458c0,5.248,4.254,9.5,9.5,9.5h9.387v-2.338h-2.793c-1.684,0-3.08-0.801-3.738-2.139
	c-0.658-1.34-0.438-2.934,0.591-4.266l3.483-4.512l2.422-3.14l3.479-4.515c0.892-1.153,2.198-1.815,3.587-1.815
	c1.391,0,2.697,0.662,3.589,1.816l3.478,4.512l1.213,1.572l1.211,1.57l3.48,4.511c1.028,1.332,1.249,2.926,0.591,4.266
	s-2.056,2.139-3.738,2.139h-2.793v2.338h7.387c5.246,0,9.5-4.252,9.5-9.5C53.263,27.415,51.738,24.643,49.397,22.913z"/>
</svg>
