<?xml version="1.0" encoding="utf-8"?>
<!-- Generator: Adobe Illustrator 15.1.0, SVG Export Plug-In . SVG Version: 6.00 Build 0)  -->
<!DOCTYPE svg PUBLIC "-//W3C//DTD SVG 1.1//EN" "http://www.w3.org/Graphics/SVG/1.1/DTD/svg11.dtd">
<svg version="1.1" id="Layer_1" xmlns="http://www.w3.org/2000/svg" xmlns:xlink="http://www.w3.org/1999/xlink" x="0px" y="0px"
	 width="56.69px" height="56.69px" viewBox="0 0 56.69 56.69" enable-background="new 0 0 56.69 56.69" xml:space="preserve">
<path d="M47.627,47.787h-3.578l-1.307-4.375H42.74l-3.294-11.018h0.001l-2.664-8.91h-0.001l-3.294-11.02l0,0l-2.713-9.072h-4.538
	l-6.144,20.092h0l-2.725,8.91l0,0L14,43.412l0,0l-1.338,4.375H9.064c-1.521,0-2.754,1.234-2.754,2.754
	c0,1.523,1.232,2.756,2.754,2.756h38.563c1.521,0,2.754-1.232,2.754-2.756C50.381,49.021,49.148,47.787,47.627,47.787z
	 M25.555,12.465h5.846l3.294,11.02h-12.51L25.555,12.465z M19.46,32.395h17.899l3.294,11.018H16.091L19.46,32.395z"/>
</svg>
