<?xml version="1.0" encoding="utf-8"?>
<!-- Generator: Adobe Illustrator 15.1.0, SVG Export Plug-In . SVG Version: 6.00 Build 0)  -->
<!DOCTYPE svg PUBLIC "-//W3C//DTD SVG 1.1//EN" "http://www.w3.org/Graphics/SVG/1.1/DTD/svg11.dtd">
<svg version="1.1" id="Layer_1" xmlns="http://www.w3.org/2000/svg" xmlns:xlink="http://www.w3.org/1999/xlink" x="0px" y="0px"
	 width="56.69px" height="56.69px" viewBox="0 0 56.69 56.69" enable-background="new 0 0 56.69 56.69" xml:space="preserve">
<path d="M51.856,17.474L32.296,37.033c-1.699,1.691-4.416,1.721-6.162,0.111L14.815,25.852c-1.742-1.736-1.742-4.561,0-6.297
	c1.738-1.742,4.561-1.742,6.297,0l8.03,8.029l16.408-16.41c1.739-1.74,4.562-1.74,6.306,0
	C53.593,12.914,53.593,15.737,51.856,17.474z M43.792,31.193v13.971c0,0.723-0.588,1.311-1.312,1.311H8.843
	c-0.723,0-1.312-0.588-1.312-1.311V11.528c0-0.724,0.589-1.313,1.312-1.313h32.01l1.87-1.87c0.634-0.634,1.354-1.149,2.129-1.547
	c-0.717-0.36-1.515-0.583-2.371-0.583H8.843c-2.935,0-5.312,2.379-5.312,5.313v33.636c0,2.934,2.377,5.311,5.312,5.311H42.48
	c2.933,0,5.312-2.377,5.312-5.311V27.195L43.792,31.193z"/>
</svg>
